<?xml version="1.0" standalone="no"?>
<!DOCTYPE svg PUBLIC "-//W3C//DTD SVG 1.1//EN" "http://www.w3.org/Graphics/SVG/1.1/DTD/svg11.dtd" >
<svg xmlns="http://www.w3.org/2000/svg">
<metadata></metadata>
<defs>
<font id="hobo_btregular" horiz-adv-x="1024" >
<font-face units-per-em="2048" ascent="1638" descent="-410" />
<missing-glyph horiz-adv-x="561" />
<glyph horiz-adv-x="2048" />
<glyph horiz-adv-x="2048" />
<glyph unicode="&#xd;" horiz-adv-x="561" />
<glyph unicode=" "  horiz-adv-x="561" />
<glyph unicode="&#x09;" horiz-adv-x="561" />
<glyph unicode="&#xa0;" horiz-adv-x="561" />
<glyph unicode="!" horiz-adv-x="598" d="M88 188q0 90 62 151.5t151 61.5q90 0 152.5 -62t62.5 -151q0 -87 -63.5 -151t-151.5 -64q-90 0 -151.5 62t-61.5 153zM111 1323q0 180 16.5 237.5t83.5 57.5q198 0 261 -7.5t63 -27.5q0 -4 -78 -225.5t-78 -466.5q0 -156 16 -296q2 -20 2 -24q0 -16 -12 -22t-43 -6h-25 q-61 0 -77.5 12.5t-32.5 69.5q-43 146 -69.5 336.5t-26.5 361.5z" />
<glyph unicode="&#x22;" horiz-adv-x="643" d="M86 879v557h164v-557h-164zM395 879v557h164v-557h-164z" />
<glyph unicode="#" horiz-adv-x="1575" d="M70 428l61 172h297l90 252h-315l61 172h316l155 436h191l-154 -436h250l156 436h190l-154 -436h291l-59 -172h-293l-90 -252h309l-61 -172h-307l-156 -434h-191l156 434h-252l-158 -434h-190l156 434h-299zM618 598h256l91 254h-256z" />
<glyph unicode="$" horiz-adv-x="1124" d="M82 131q0 7 1.5 14t4.5 15l64 200q8 23 17.5 33t23.5 10q21 0 111 -62t169 -66l23 399q-198 62 -291.5 170.5t-93.5 273.5q0 191 116 304.5t322 123.5l2 80q0 18 13 24.5t50 6.5h35q35 0 43 -5.5t8 -23.5l-2 -92q121 -28 193 -63t72 -64q0 -12 -2.5 -22t-5.5 -18 l-60 -153q-3 -9 -8.5 -14.5t-12.5 -5.5l-62 37.5t-132 58.5l-23 -383q198 -64 297 -184.5t99 -296.5q0 -203 -113 -318t-334 -137v-116q0 -23 -9 -30t-48 -7h-14h-29q-34 0 -42.5 9t-8.5 40v12l2 96q-158 29 -266.5 75t-108.5 79zM334 1133q0 -68 44 -114t132 -69l20 355 q-92 -7 -144 -52.5t-52 -119.5zM625 271q92 1 142 46t50 127q0 74 -45 123t-129 66z" />
<glyph unicode="%" horiz-adv-x="1802" d="M168 1122q0 188 83 303t216 115q139 0 218 -105.5t79 -291.5q0 -192 -82 -303t-223 -111q-136 0 -213.5 105t-77.5 288zM326 1157q0 -113 35 -170t104 -57t105 54.5t36 160.5q0 120 -34 179.5t-103 59.5q-70 0 -106.5 -58t-36.5 -169zM565 25q0 12 3 26t10 31l497 1378 q20 55 41 74.5t76 19.5q53 0 80.5 -5.5t27.5 -16.5q0 -5 -2.5 -16.5t-7.5 -22.5l-594 -1434q-18 -45 -37.5 -63.5t-48.5 -18.5q-17 0 -31 14.5t-14 33.5zM1044 393q0 188 83 302t216 114q139 0 219 -106t80 -291q0 -191 -81.5 -301.5t-223.5 -110.5q-136 0 -214.5 105 t-78.5 288zM1202 424q0 -113 35 -169t104 -56q70 0 106 54t36 159q0 120 -34.5 180.5t-102.5 60.5q-70 0 -107 -59t-37 -170z" />
<glyph unicode="&#x26;" horiz-adv-x="1726" d="M96 356q0 82 31.5 158.5t97.5 155.5q34 40 110.5 106.5t76.5 106.5q0 28 -58.5 131.5t-58.5 195.5q0 160 126 267.5t320 107.5q169 0 268 -83t99 -224q0 -73 -28.5 -136t-98.5 -141q-25 -27 -70 -71q-80 -78 -80 -115q0 -59 46 -128t79 -69q36 0 101 72q35 39 57 60 q96 92 170 128.5t158 36.5q101 0 163 -54t62 -144q0 -47 -21 -83t-42 -36q-6 0 -62 30.5t-110 30.5q-39 0 -85.5 -22.5t-93.5 -65.5q-58 -52 -88 -93.5t-30 -69.5q0 -40 46.5 -66.5t116.5 -26.5q89 0 169 61q15 11 18 11q7 0 12.5 -22t5.5 -54q0 -141 -82.5 -239.5 t-206.5 -98.5q-100 0 -197.5 72t-101.5 72q-1 0 -139 -72t-293 -72q-175 0 -281 105.5t-106 277.5zM385 418q0 -88 51.5 -142.5t134.5 -54.5q74 0 132.5 37t58.5 78q0 12 -5 27t-14 28l-153 225q-9 13 -18 19t-21 6q-59 0 -112.5 -71t-53.5 -152zM571 1253q0 -75 45 -146 t91 -71q43 0 99 75t56 153q0 56 -39 92.5t-102 36.5q-65 0 -107.5 -39.5t-42.5 -100.5z" />
<glyph unicode="'" horiz-adv-x="334" d="M86 879v557h164v-557h-164z" />
<glyph unicode="(" horiz-adv-x="678" d="M41 653q0 439 121.5 685.5t337.5 246.5q46 0 66.5 -8t35.5 -29q19 -25 42.5 -94.5t23.5 -103.5q0 -22 -4 -31.5t-13 -9.5q-13 0 -33 2t-26 2q-171 0 -274 -205.5t-103 -550.5q0 -279 66 -545q10 -40 10 -47q0 -20 -48 -49t-71 -29q-22 0 -36 27t-34 125q-31 157 -46 306 t-15 308z" />
<glyph unicode=")" horiz-adv-x="678" d="M-45 125q0 20 5 31.5t13 9.5q14 0 34 -2t26 -2q170 0 272.5 204t102.5 549q0 279 -65 547q-9 40 -9 47q0 21 48 49.5t71 28.5q22 0 36 -26.5t33 -124.5q31 -152 45.5 -300.5t14.5 -316.5q0 -440 -121 -685t-336 -245q-46 0 -66.5 8.5t-35.5 28.5q-20 26 -44 95.5 t-24 103.5z" />
<glyph unicode="*" d="M104 1227q0 1 2 4t3 6l47 149q3 10 6.5 12.5t9.5 2.5q4 0 21 -9q11 -6 17 -9l212 -111q6 -3 10.5 -4.5t7.5 -1.5q12 0 16.5 4.5t4.5 17.5q0 8 -2 19l-37 229q0 2 -1 6q-3 18 -3 27q0 8 5.5 12t16.5 4h156q13 0 16.5 -3.5t3.5 -12.5q0 -2 -1 -7.5t-5 -25.5l-45 -234 q-1 -3 -1.5 -6.5t-0.5 -9.5q0 -9 5.5 -14.5t13.5 -5.5q2 0 6.5 2.5t7.5 3.5l218 109q2 1 5 3q22 13 31 13q7 -1 11.5 -5t6.5 -11l47 -148l3 -12q0 -7 -9.5 -11t-36.5 -8l-246 -31q-14 -1 -22 -5.5t-8 -12.5q0 -4 5 -12t11 -15l174 -170q3 -2 7 -6q18 -18 18 -28 q0 -5 -2.5 -9t-7.5 -8l-129 -88q-3 -2 -6 -5t-4 -3q-12 0 -25 28q-4 8 -6 13l-101 220q-6 12 -11.5 18t-10.5 6q-11 0 -22 -20q-2 -4 -3 -5l-110 -211q-2 -3 -4 -7q-14 -30 -27 -30q-3 0 -6 1.5t-8 4.5l-126 93q-6 5 -7.5 7t-1.5 7q0 9 23 30l5 5l182 161q12 10 16.5 16 t4.5 11q-1 8 -8 12.5t-21 6.5l-243 28q-29 4 -38.5 9t-9.5 14z" />
<glyph unicode="+" horiz-adv-x="1706" d="M254 528v166h514v527h170v-527h514v-166h-514v-528h-170v528h-514z" />
<glyph unicode="," horiz-adv-x="561" d="M16 172q0 4 2.5 7.5t8.5 6.5l233 187q10 8 23 13t26 5q67 0 121.5 -68.5t54.5 -162.5q0 -129 -112.5 -220.5t-257.5 -91.5q-2 0 -3 1.5t-1 3.5t8 15q51 83 51 150q0 41 -16 66.5t-58 48.5q-23 13 -51.5 20.5t-28.5 18.5z" />
<glyph unicode="-" horiz-adv-x="680" d="M70 504q0 31 17.5 87t41.5 95q12 19 26 26t38 7h348q31 0 41 -6t10 -27q0 -39 -19 -102t-38 -90q-11 -16 -24 -20.5t-46 -4.5h-342q-33 0 -43 6.5t-10 28.5z" />
<glyph unicode="." horiz-adv-x="561" d="M68 174q0 90 62 152.5t151 62.5q88 0 150.5 -62.5t62.5 -152.5q0 -87 -63 -150t-150 -63q-91 0 -152 61t-61 152z" />
<glyph unicode="/" horiz-adv-x="563" d="M-4 -4q0 11 1 17.5t3 13.5l434 1484q9 29 21 38.5t37 9.5h69q14 0 22.5 -6t8.5 -15q0 -12 -1 -19t-3 -14l-434 -1484q-9 -28 -21.5 -38t-36.5 -10h-69q-14 0 -22.5 6.5t-8.5 16.5z" />
<glyph unicode="0" horiz-adv-x="1124" d="M88 721q0 397 127.5 612t359.5 215q216 0 341.5 -198.5t125.5 -546.5q0 -404 -119 -613.5t-348 -209.5t-358 194.5t-129 546.5zM352 795q0 -217 58 -338t161 -121q102 0 154.5 127.5t52.5 374.5q0 214 -55 334t-152 120q-103 0 -161 -130.5t-58 -366.5z" />
<glyph unicode="1" horiz-adv-x="1124" d="M303 1395q0 48 109 99.5t227 51.5q58 0 84.5 -15.5t26.5 -51.5q0 -13 -11 -73q-49 -291 -49 -575q0 -358 60 -718q10 -58 10 -68v-12q0 -20 -7.5 -26.5t-25.5 -6.5h-260q-32 0 -40.5 18t-8.5 105v27q0 255 11 591.5t11 417.5q0 93 -68.5 157.5t-68.5 78.5z" />
<glyph unicode="2" horiz-adv-x="1124" d="M88 106v19q0 124 54 242t165 235q84 88 221 200q40 32 56 46q88 76 117.5 128t29.5 116q0 83 -53.5 138.5t-132.5 55.5q-68 0 -129.5 -45t-108.5 -129q-12 -21 -29 -56q-24 -50 -40 -50q-9 0 -16 4t-11 12l-59 106q-7 12 -20 32q-30 47 -30 75q0 29 24 72t67 90 q65 73 157.5 111t204.5 38q197 0 321.5 -115.5t124.5 -297.5q0 -253 -420 -572l-40 -31q-78 -60 -115 -103.5t-37 -74.5q0 -10 10 -15t31 -5q9 0 49 8t72 8q50 0 126 -20.5t103 -20.5q67 0 99 34.5t32 104.5q0 21 -5 44.5t-5 25.5t2 2q28 0 73.5 -79.5t45.5 -170.5 q0 -126 -78.5 -204t-206.5 -78q-45 0 -155.5 23.5t-173.5 23.5q-68 0 -151.5 -25.5t-100.5 -25.5q-42 0 -55 18.5t-13 105.5z" />
<glyph unicode="3" horiz-adv-x="1124" d="M76 186q0 13 6.5 28.5t19.5 32.5l152 195q7 9 14 13.5t13 5.5q6 0 28 -24q93 -103 213 -103q77 0 125.5 49.5t48.5 126.5q0 82 -40.5 138t-123.5 87q-53 20 -151 29.5t-98 46.5q0 35 97 124q51 48 83 79q105 102 147.5 155.5t42.5 81.5q0 19 -28.5 31t-73.5 12 q-125 0 -274 -52q-43 -15 -54 -15q-15 0 -23 7t-12 24l-36 194q0 1 -1 10t-1 17q0 27 13.5 37t53.5 10h33h639q36 0 51.5 -13.5t15.5 -44.5q0 -86 -20.5 -152t-71.5 -145q-50 -76 -121 -153t-71 -88q0 -12 53.5 -37t89.5 -51q83 -62 123.5 -150.5t40.5 -208.5 q0 -218 -141 -360.5t-353 -142.5q-142 0 -275.5 77t-133.5 129z" />
<glyph unicode="4" horiz-adv-x="1124" d="M82 555q0 133 73 297.5t232 386.5q134 188 197 247.5t116 59.5h21l211 -12q12 0 18 -6t6 -19q0 -20 -103 -116.5t-171 -169.5q-135 -145 -218 -290t-83 -220q0 -15 10 -21t37 -6q43 0 96.5 12t73.5 23q38 22 61 110q11 41 19 64q49 144 136 246t144 102q6 0 8.5 -5 t2.5 -17q0 -4 -38 -140.5t-38 -255.5q0 -62 28 -88.5t118 -36.5q27 -2 37.5 -10.5t10.5 -36.5v-192q0 -22 -8 -32.5t-26 -10.5q-11 0 -61 10t-87 10q-50 0 -68 -60.5t-18 -293.5v-14q0 -45 -7.5 -57.5t-27.5 -12.5h-217q-23 0 -31 11.5t-8 41.5q0 89 19.5 207t19.5 137 q0 32 -13.5 43t-61.5 11q-78 0 -185.5 -16.5t-132.5 -16.5q-52 0 -72 30t-20 107z" />
<glyph unicode="5" horiz-adv-x="1124" d="M113 143q0 7 5 22t13 34l100 210q8 17 16.5 25t16.5 8t96.5 -72.5t180.5 -72.5q93 0 150 59.5t57 157.5q0 104 -65 171t-165 67q-64 0 -145 -43t-99 -43q-16 0 -46.5 12t-45.5 27q-11 11 -15.5 38t-4.5 86q0 96 24.5 258t65.5 316q1 4 4 14q29 109 117 109h561 q19 0 29 -9.5t10 -27.5q0 -23 -6.5 -73.5t-16.5 -100.5q-8 -39 -16 -49.5t-29 -10.5q-3 0 -105.5 16.5t-203.5 16.5q-104 0 -131.5 -25t-48.5 -141l-21 -110q-2 -9 -3 -17t-1 -20q1 -12 14.5 -20.5t32.5 -8.5q12 0 69 21.5t101 21.5q186 0 301 -129.5t115 -345.5 q0 -252 -137.5 -393t-382.5 -141q-153 0 -272 56t-119 107z" />
<glyph unicode="6" horiz-adv-x="1124" d="M98 711q0 375 175.5 605t455.5 230q109 0 174.5 -22t65.5 -58q0 -3 -1 -7t-4 -12l-75 -185q-4 -10 -13.5 -18.5t-15.5 -8.5q-5 0 -23 11q-76 46 -149 46q-107 0 -203 -113.5t-96 -222.5q0 -15 7.5 -21.5t25.5 -6.5q13 0 92.5 43t161.5 43q156 0 266.5 -136t110.5 -341 q0 -242 -138.5 -401t-343.5 -159q-217 0 -345 197.5t-128 536.5zM381 545q0 -108 63 -181t154 -73t143 63t52 174q0 109 -53 172.5t-140 63.5q-91 0 -155 -62.5t-64 -156.5z" />
<glyph unicode="7" horiz-adv-x="1124" d="M158 1475v10q0 21 11.5 32t35.5 11h739q31 0 45.5 -8.5t14.5 -26.5v-172q0 -57 -85 -167q-28 -36 -42 -56q-127 -176 -193 -338.5t-66 -300.5q0 -116 49 -185t130 -69q5 0 16.5 1t17.5 1q16 0 21.5 -3t5.5 -9q0 -69 -89 -141t-202 -72q-121 0 -201.5 96t-80.5 246 q0 123 54.5 265.5t166.5 311.5q56 85 140.5 201t84.5 139q0 28 -18.5 38.5t-71.5 10.5h-203q-89 0 -155.5 -71.5t-69.5 -71.5q-9 0 -15 10t-8 27z" />
<glyph unicode="8" horiz-adv-x="1124" d="M78 369q0 84 32 161t93 140q13 13 39 37q65 58 65 92q0 11 -69.5 117.5t-69.5 226.5q0 180 114 290.5t302 110.5q187 0 303.5 -101t116.5 -261q0 -65 -23 -120.5t-68 -96.5q-10 -10 -28 -27q-68 -63 -68 -94q0 -27 65 -75q24 -19 38 -30q65 -53 94.5 -119.5t29.5 -158.5 q0 -220 -133.5 -349.5t-359.5 -129.5q-216 0 -344.5 106t-128.5 281zM371 442q0 -73 51 -118t135 -45q91 0 144 45.5t53 121.5q0 91 -57.5 158.5t-135.5 67.5q-76 0 -133 -69t-57 -161zM414 1157q0 -72 62.5 -139.5t103.5 -67.5q51 0 108 68t57 147q0 71 -47 114.5 t-123 43.5q-72 0 -116.5 -46t-44.5 -120z" />
<glyph unicode="9" horiz-adv-x="1124" d="M90 1040q0 204 143.5 356t333.5 152q211 0 341 -192t130 -512q0 -404 -168 -636.5t-456 -232.5q-98 0 -176 31t-78 62q0 7 3 19.5t7 21.5l104 239q7 14 15 22.5t16 8.5q7 0 66 -27.5t116 -27.5q107 0 187 88t80 194q0 30 -6 43t-19 13q-14 0 -91.5 -36t-154.5 -36 q-183 0 -288 120.5t-105 329.5zM350 1057q0 -101 57.5 -164.5t147.5 -63.5q92 0 146.5 56t54.5 151q0 121 -57 202t-142 81q-88 0 -147.5 -76t-59.5 -186z" />
<glyph unicode=":" horiz-adv-x="563" d="M53 186q0 89 62 151t151 62t151 -62t62 -151q0 -88 -63 -151.5t-150 -63.5q-90 0 -151.5 62t-61.5 153zM66 1018q0 89 61.5 151t151.5 62q89 0 152 -62t63 -151q0 -87 -64 -150t-151 -63q-91 0 -152 61t-61 152z" />
<glyph unicode=";" horiz-adv-x="563" d="M25 172q0 4 2 7.5t8 6.5l233 187q10 8 23 13t26 5q67 0 122 -68.5t55 -162.5q0 -129 -113 -220.5t-258 -91.5q-2 0 -3 1.5t-1 3.5t8 15q51 83 51 150q0 42 -15.5 67.5t-56.5 47.5q-23 13 -52 20.5t-29 18.5zM49 981q0 89 62 151t151 62t151 -62t62 -151 q0 -88 -62.5 -150.5t-150.5 -62.5q-90 0 -151.5 61t-61.5 152z" />
<glyph unicode="&#x3c;" horiz-adv-x="1706" d="M264 530v160l1178 486v-185l-934 -381l934 -381v-182z" />
<glyph unicode="=" horiz-adv-x="1706" d="M254 322v165h1198v-165h-1198zM254 733v168h1198v-168h-1198z" />
<glyph unicode="&#x3e;" horiz-adv-x="1706" d="M264 47v182l934 381l-934 381v185l1178 -486v-160z" />
<glyph unicode="?" horiz-adv-x="864" d="M72 1434q0 59 101 131.5t224 72.5q171 0 283.5 -119t112.5 -300q0 -116 -37 -208t-111 -161q-54 -51 -121 -93.5t-71 -47.5q-20 -27 -24 -79.5t-5 -58.5q-4 -16 -21 -21t-79 -5q-63 0 -78 9.5t-15 39.5v194q0 40 13 68.5t45 58.5q26 25 82 70q155 124 155 227 q0 74 -40 124t-99 50q-71 0 -143 -94q-17 -22 -21 -22q-16 0 -60 48q-16 18 -26 28q-42 43 -53.5 60t-11.5 28zM125 188q0 90 62 151.5t151 61.5t151 -61.5t62 -151.5q0 -88 -63 -151.5t-150 -63.5q-90 0 -151.5 62t-61.5 153z" />
<glyph unicode="@" horiz-adv-x="2048" d="M98 522q0 165 52 313.5t153 272.5q147 179 353.5 272t459.5 93q166 0 315 -45.5t255 -127.5q132 -102 198 -235.5t66 -300.5q0 -162 -65 -302t-185 -237q-69 -55 -150 -83.5t-168 -28.5q-106 0 -157 40.5t-51 125.5v4q-55 -87 -128 -127.5t-176 -40.5q-152 0 -232.5 86.5 t-80.5 249.5q0 233 138 395t333 162q89 0 149 -34.5t99 -107.5l55 107h154l-148 -586q-1 -5 -2 -12q-6 -27 -6 -37q0 -38 26.5 -61t69.5 -23q51 0 107.5 30.5t105.5 84.5q72 76 110 177.5t38 215.5q0 253 -187 411t-489 158q-138 0 -256 -31t-215 -94q-181 -113 -279 -291 t-98 -395q0 -312 209.5 -499t558.5 -187q166 0 323.5 49t291.5 142l67 -99q-149 -113 -318.5 -170t-355.5 -57q-192 0 -351 48t-281 142q-155 118 -231.5 275.5t-76.5 357.5zM741 444q0 -98 45.5 -151t128.5 -53q90 0 163.5 66.5t99.5 172.5l55 228q-14 84 -61.5 130 t-122.5 46q-127 0 -217.5 -128.5t-90.5 -310.5z" />
<glyph unicode="A" horiz-adv-x="1350" d="M68 426q0 223 64 431.5t187 389.5q100 145 216.5 241.5t179.5 96.5q43 0 117 -58t147 -153q137 -178 199.5 -398t62.5 -532q0 -120 -12.5 -235t-26.5 -160q-9 -30 -25.5 -39.5t-58.5 -9.5h-237q-24 0 -37 4t-13 12t20 57q91 229 91 388q0 74 -27.5 101.5t-101.5 27.5 q-69 0 -155.5 -15.5t-153.5 -39.5q-70 -26 -99.5 -64t-29.5 -102q0 -107 57 -227t57 -126q0 -9 -7.5 -12.5t-26.5 -3.5h-277q-54 0 -82 109.5t-28 316.5zM408 852q0 -30 9.5 -40.5t37.5 -10.5q1 0 101 21.5t214 21.5q96 0 122 12t26 49q0 40 -20 97.5t-54 115.5 q-49 84 -78.5 114t-58.5 30q-34 0 -78.5 -41t-100.5 -123q-63 -94 -91.5 -152t-28.5 -94z" />
<glyph unicode="B" horiz-adv-x="1233" d="M104 723q0 191 9 362t24 293q15 112 37 147.5t70 35.5h483q168 0 253 -69.5t85 -205.5q0 -54 -20.5 -110.5t-59.5 -110.5q-26 -35 -75.5 -89t-49.5 -75t64 -83t98 -101q69 -79 102 -164t33 -186q0 -114 -41 -197.5t-117 -126.5q-41 -23 -101 -33t-183 -10h-504 q-35 0 -48.5 13t-23.5 75q-15 97 -25 268t-10 367zM365 967q0 -44 13 -67t38 -23q38 0 93 32.5t136 104.5q76 67 109.5 116.5t33.5 92.5q0 49 -41.5 76.5t-117.5 27.5q-147 0 -205.5 -79t-58.5 -281zM381 551q0 -171 45 -239t168 -68q134 0 205 50.5t71 145.5 q0 92 -82.5 203t-136.5 111q-8 0 -18 -3.5t-21 -9.5l-172 -96q-36 -19 -47.5 -38.5t-11.5 -55.5z" />
<glyph unicode="C" horiz-adv-x="1237" d="M70 786q0 350 177.5 574.5t448.5 224.5q160 0 260.5 -72.5t100.5 -185.5q0 -74 -50 -125t-122 -51h-8q-17 79 -66 119.5t-127 40.5q-146 0 -243 -136t-97 -344q0 -225 113 -371.5t284 -146.5q93 0 173.5 43.5t117.5 112.5q28 49 38 97l11 48q18 0 41 -65t23 -150 q0 -190 -129.5 -308t-339.5 -118q-279 0 -442.5 219t-163.5 594z" />
<glyph unicode="D" horiz-adv-x="1313" d="M125 795q0 212 13 367t40 288q15 71 28 91t44 20h307q131 0 228.5 -55t191.5 -181q107 -145 169 -342t62 -393q0 -287 -129.5 -438.5t-376.5 -151.5h-452q-65 0 -95 192t-30 603zM414 850q0 -354 51 -487.5t178 -133.5q120 0 197.5 118.5t77.5 307.5q0 120 -34 239 t-100 226q-57 94 -123.5 149.5t-119.5 55.5q-71 0 -99 -101.5t-28 -373.5z" />
<glyph unicode="E" horiz-adv-x="1163" d="M127 649q0 211 20.5 412.5t55.5 343.5q22 95 41 125.5t49 30.5h741q27 0 37 -5.5t10 -17.5q0 -4 -1 -8.5t-3 -7.5l-110 -240q-9 -17 -16 -24t-15 -7q-4 0 -27 14q-128 74 -243 74q-127 0 -199 -72t-72 -200q0 -44 17 -71t45 -27q30 0 138 45t185 45q79 0 101 -7.5 t22 -27.5q0 -4 -0.5 -7t-3.5 -11l-88 -244l-6 -15q-7 -20 -17 -20q-3 0 -57 16.5t-102 16.5q-103 0 -168.5 -70t-65.5 -180q0 -127 65 -197.5t183 -70.5q97 0 202.5 63.5t106.5 63.5q9 0 17 -7.5t14 -21.5l127 -275q3 -7 4.5 -13t1.5 -11q0 -21 -19 -31t-61 -10h-819 q-44 0 -57 13.5t-19 75.5q-5 44 -9.5 205t-4.5 355z" />
<glyph unicode="F" horiz-adv-x="1163" d="M162 678q0 235 14.5 427.5t42.5 336.5q15 78 33 98.5t57 20.5h811q23 0 32 -6t9 -21q0 -4 -1 -9l-1 -5l-119 -252q-8 -19 -16 -27t-18 -8q-5 0 -32 16q-137 80 -249 80q-117 0 -186.5 -77t-69.5 -208q0 -82 16 -105.5t62 -23.5q14 0 127.5 50.5t208.5 50.5q39 0 61.5 -10 t22.5 -27q0 -1 -1 -4t-1 -4l-78 -258q-4 -15 -11.5 -22t-17.5 -7q-8 0 -54.5 12.5t-86.5 12.5q-116 0 -177 -69t-61 -202q0 -111 35 -249.5t35 -155.5q0 -21 -10 -27t-54 -6h-239q-32 0 -46 9.5t-20 35.5q-10 43 -14 172t-4 461z" />
<glyph unicode="G" horiz-adv-x="1294" d="M72 700q0 385 208.5 636t528.5 251q159 0 254.5 -67.5t95.5 -178.5q0 -76 -48 -126t-118 -50q-13 0 -28.5 3t-34.5 10v4q0 52 -44 82t-122 30q-167 0 -279 -157.5t-112 -403.5q0 -203 84 -322.5t225 -119.5q105 0 170.5 57.5t65.5 151.5q0 87 -120 173q-30 21 -30 27 q0 5 4 10t9 7l290 127l25 10q18 0 27 -11.5t14 -40.5l63 -353q6 -33 9 -59.5t3 -47.5q0 -169 -128 -268t-349 -99q-305 0 -484 196.5t-179 528.5z" />
<glyph unicode="H" horiz-adv-x="1458" d="M150 610q0 276 17.5 478t55.5 356l1 3q28 114 87 114h244q25 0 33 -5.5t8 -19.5q0 -11 -29 -69q-123 -249 -123 -435q0 -45 11 -59.5t43 -14.5q12 0 121 31t208 31q24 0 60 -2t49 -2q30 0 41.5 12t11.5 45q0 31 -18.5 104.5t-48.5 149.5q-26 64 -59.5 131.5t-33.5 77.5 q0 14 8.5 19.5t32.5 5.5h244q59 0 87 -114q1 -2 1 -3q48 -197 70 -397.5t22 -485.5q0 -194 -7 -336t-19 -180q-8 -27 -22.5 -36t-57.5 -9h-246q-24 0 -31.5 6.5t-7.5 28.5q0 5 22.5 63.5t39.5 116.5q32 107 49.5 204.5t17.5 164.5q0 90 -37.5 132t-117.5 42q-87 0 -178 -24 t-148 -60q-60 -40 -86.5 -95.5t-26.5 -146.5q0 -162 81 -342q20 -45 20 -55q0 -20 -8.5 -27.5t-32.5 -7.5h-260q-29 0 -43.5 10t-22.5 35q-10 38 -16 188.5t-6 376.5z" />
<glyph unicode="I" horiz-adv-x="672" d="M152 586q0 251 14.5 477.5t42.5 402.5q10 65 22.5 80t49.5 15h221q24 0 35.5 -5t12.5 -16q0 -15 -18 -89q-75 -337 -75 -642q0 -342 70 -694q14 -71 14 -86t-12.5 -22t-41.5 -7h-219q-38 0 -52.5 8t-22.5 33q-21 62 -31 199.5t-10 345.5z" />
<glyph unicode="J" horiz-adv-x="772" d="M-10 121q0 20 15 64.5t52 133.5q17 42 32 60t32 18q16 0 50.5 -65.5t76.5 -65.5q45 0 63.5 54.5t18.5 191.5q0 561 -83 968q-7 36 -7 42q0 18 15 28.5t40 10.5h221q38 0 54.5 -12.5t25.5 -51.5q17 -76 27 -231.5t10 -362.5q0 -564 -82.5 -748t-296.5 -184q-102 0 -183 49 t-81 101z" />
<glyph unicode="K" horiz-adv-x="1237" d="M111 586q0 217 13 426t38 397l1 7q18 143 64 143q1 0 5.5 1t9.5 1h221q27 0 38 -7t11 -24q0 -22 -47 -227t-47 -353q0 -37 9 -58.5t26 -21.5q42 0 137 128.5t186 320.5q44 91 65 186q12 55 54 56h182q27 0 41.5 -9t14.5 -26q0 -39 -34 -122t-91 -179q-42 -71 -112.5 -172 t-70.5 -131q0 -19 90 -130t148 -235q56 -119 87.5 -252t31.5 -248q0 -34 -9.5 -45.5t-33.5 -11.5h-265q-25 0 -32.5 9.5t-7.5 35.5v68q0 197 -75.5 390t-123.5 193q-16 0 -51 -30.5t-97 -98.5q-23 -27 -34 -56t-11 -69q0 -116 31 -256.5t31 -152.5q0 -14 -16 -23.5t-37 -9.5 h-222q-33 0 -51.5 12t-28.5 42q-17 53 -27.5 194.5t-10.5 337.5z" />
<glyph unicode="L" horiz-adv-x="1090" d="M141 385q0 253 28 524.5t77 501.5q2 11 6 31q24 119 90 119h258q17 -1 24.5 -5t8.5 -14q0 -9 -37.5 -100.5t-65.5 -179.5q-51 -162 -81.5 -359t-30.5 -358q0 -151 54 -225t165 -74q50 0 98.5 18t100.5 55q28 21 58.5 54t39.5 33q10 0 18 -10.5t13 -28.5l80 -294 q2 -6 4 -15.5t2 -20.5q0 -22 -16.5 -29.5t-65.5 -7.5h-733q-35 0 -47 5.5t-19 25.5q-11 29 -20 130t-9 224z" />
<glyph unicode="M" horiz-adv-x="1722" d="M152 829q0 200 11 376.5t25 256.5q1 4 2 9q17 90 54 90h229q58 0 95.5 -31t93.5 -119q68 -109 122 -235.5t64 -126.5t71.5 128.5t141.5 233.5q67 89 106.5 119.5t83.5 30.5h195q55 0 69 -77q1 -9 3 -16q18 -97 28 -285.5t10 -428.5q0 -198 -11 -370t-29 -277 q-2 -8 -4 -21q-14 -86 -72 -86h-254q-20 0 -26.5 3t-6.5 11q0 3 23.5 78t40.5 154q24 114 35.5 241t11.5 351v49q0 138 -12.5 199t-41.5 61q-32 0 -87.5 -108.5t-106.5 -274.5q-29 -96 -58 -238q-36 -182 -110 -182q-83 0 -128 192q-30 129 -56 214q-62 191 -116 296 t-91 105q-26 0 -36.5 -68t-10.5 -239q0 -407 108 -763q14 -48 14 -56q0 -14 -7 -19.5t-25 -5.5h-232q-47 0 -62.5 13.5t-23.5 50.5q-11 52 -20.5 272t-9.5 493z" />
<glyph unicode="N" horiz-adv-x="1470" d="M158 715q0 287 7 455.5t23 272.5q2 13 5 36q11 82 49 82h182q57 0 102 -42t144 -186q123 -176 234 -386t128 -210q11 0 18 27.5t7 71.5q0 348 -80 660q-10 40 -10 46q0 10 9.5 14.5t35.5 4.5h188q24 0 35.5 -14t17.5 -51q17 -107 29 -320.5t12 -446.5q0 -204 -9 -374.5 t-23 -262.5q-1 -4 -2 -11q-12 -81 -72 -81h-197q-19 0 -29.5 3.5t-13.5 11.5q-1 1 -35 112.5t-73 230.5q-98 290 -221.5 501.5t-172.5 211.5q-24 0 -35.5 -31t-11.5 -100q0 -437 84 -832q13 -59 13 -69q0 -24 -12 -31.5t-48 -7.5h-194q-35 0 -46 18t-18 75q-7 59 -13.5 236 t-6.5 386z" />
<glyph unicode="O" horiz-adv-x="1425" d="M84 532q0 205 57.5 410.5t161.5 370.5q85 133 191 203.5t221 70.5q114 0 213.5 -70t199.5 -221q98 -144 151.5 -336t53.5 -397q0 -316 -153.5 -453t-513.5 -137q-307 0 -444.5 133t-137.5 426zM393 653q0 -184 73 -261t249 -77q165 0 241 85t76 272q0 254 -99 441 t-218 187q-128 0 -225 -190.5t-97 -456.5z" />
<glyph unicode="P" horiz-adv-x="1241" d="M162 766q0 261 11.5 449t33.5 292q6 32 17.5 43t39.5 11h588q170 0 262 -85t92 -241q0 -140 -75 -256.5t-240 -233.5q-61 -43 -172 -105t-152 -93q-42 -34 -56.5 -66t-14.5 -86q0 -137 54 -314q15 -49 15 -61q0 -11 -10.5 -15.5t-38.5 -4.5h-266q-34 0 -47 12.5t-17 51.5 q-12 163 -18 342t-6 360zM461 899q0 -51 10 -78.5t29 -27.5q27 0 94.5 36.5t144.5 96.5q94 71 131 124.5t37 112.5q0 81 -56.5 122.5t-166.5 41.5q-117 0 -165.5 -61.5t-53.5 -220.5l-4 -132v-14z" />
<glyph unicode="Q" horiz-adv-x="1352" d="M86 774q0 370 159.5 590.5t426.5 220.5q252 0 406.5 -213t154.5 -569q0 -132 -22.5 -258t-67.5 -254q68 -73 99.5 -140t31.5 -139q0 -45 -9.5 -71.5t-25.5 -26.5q-17 0 -88.5 66.5t-138.5 119.5q-68 -64 -153 -96.5t-187 -32.5q-271 0 -428.5 216t-157.5 587zM385 764 q0 -236 68 -360.5t194 -124.5q17 0 42 4.5t59 13.5q-95 83 -140 168t-45 180q0 41 14 73t25 32q2 0 6 -10q28 -59 94 -122q57 -53 108.5 -86t82.5 -36q20 41 32.5 130.5t12.5 198.5q0 230 -69 354t-197 124q-138 0 -212.5 -140.5t-74.5 -398.5z" />
<glyph unicode="R" horiz-adv-x="1311" d="M139 766q0 261 11.5 449t33.5 292q7 33 18 43.5t40 10.5h585q170 0 264.5 -87t94.5 -241q0 -76 -25.5 -143t-83.5 -142q-46 -60 -105 -113.5t-59 -62.5q0 -16 83.5 -110.5t140.5 -198.5q58 -106 91.5 -226t33.5 -212q0 -11 -18 -18t-46 -7h-225q-43 0 -62 98 q-19 95 -41 170q-47 164 -106 256t-115 92q-59 0 -119.5 -57t-59.5 -129q0 -101 35.5 -248t35.5 -164q0 -10 -9.5 -14t-37.5 -4h-269q-33 0 -45.5 12.5t-15.5 50.5q-12 164 -18.5 343t-6.5 360zM432 924q0 -44 11.5 -66t33.5 -22q27 0 94 33.5t146 88.5q96 68 132 115.5 t36 102.5q0 74 -57 112.5t-166 38.5q-115 0 -164.5 -55t-57.5 -191l-8 -139v-18z" />
<glyph unicode="S" horiz-adv-x="1239" d="M80 399q0 99 40 184t70 85q15 0 26 -67t36 -118q52 -105 136 -156t206 -51q118 0 185 50.5t67 138.5q0 131 -286 231l-24 9q-228 81 -322.5 186.5t-94.5 269.5q0 189 130.5 306.5t342.5 117.5q168 0 314.5 -67.5t146.5 -126.5q0 -19 -14 -52.5t-42 -81.5 q-24 -45 -46.5 -69.5t-39.5 -24.5q-1 0 -112 83t-215 83q-79 0 -130 -45.5t-51 -116.5q0 -66 52.5 -110t220.5 -101q257 -85 365 -199.5t108 -295.5q0 -220 -151.5 -354t-401.5 -134q-229 0 -372.5 119.5t-143.5 306.5z" />
<glyph unicode="T" horiz-adv-x="1235" d="M41 1141q0 16 13 78t20 102q2 14 7 41q19 105 52 125q69 41 208.5 70.5t291.5 29.5q239 0 401 -45t162 -106q0 -80 -39.5 -177.5t-62.5 -97.5q-9 0 -40 32t-59 52q-44 35 -78.5 51.5t-64.5 16.5q-68 0 -98.5 -119t-30.5 -391q0 -393 103 -721q14 -43 14 -51 q0 -13 -18 -22t-46 -9h-252q-30 0 -43.5 12.5t-23.5 55.5q-15 68 -25 189.5t-10 256.5q0 288 56 619q16 91 16 114q0 37 -10 49.5t-38 12.5q-31 0 -87.5 -28.5t-133.5 -82.5q-30 -21 -82 -66t-75 -45q-13 0 -20 14t-7 40z" />
<glyph unicode="U" horiz-adv-x="1352" d="M98 815q0 203 16.5 385.5t41.5 282.5q14 54 27 66t48 12h232q19 0 26 -5t7 -20q0 -19 -19 -90q-71 -275 -71 -537q0 -288 70 -429.5t214 -141.5q136 0 197 119t61 385q0 325 -73 626q-13 54 -13 66q0 14 9 20.5t30 6.5h191q36 0 53 -15t29 -60q23 -99 37 -268t14 -370 q0 -438 -141.5 -656.5t-424.5 -218.5q-268 0 -414.5 219t-146.5 623z" />
<glyph unicode="V" horiz-adv-x="1278" d="M86 1118q0 244 24 343.5t83 99.5h235q18 0 30.5 -9t12.5 -20q0 -2 -48 -185.5t-48 -357.5q0 -244 89.5 -445.5t162.5 -201.5q91 0 188.5 221t97.5 504q0 147 -58 306.5t-58 162.5q0 12 12.5 18.5t38.5 6.5h207q27 0 41 -7.5t22 -27.5q27 -62 44.5 -176.5t17.5 -245.5 q0 -252 -65.5 -468.5t-192.5 -385.5q-88 -117 -180 -197t-128 -80q-39 0 -125.5 75.5t-164.5 187.5q-123 175 -180.5 387.5t-57.5 494.5z" />
<glyph unicode="W" horiz-adv-x="1683" d="M90 1130q0 290 13.5 360.5t60.5 70.5h215q39 0 49 -7t10 -26q0 -6 -6 -34q-45 -191 -45 -417q0 -243 42 -415.5t93 -172.5q79 0 151 214t72 507q0 149 -29 297q-5 24 -5 29q0 11 9 18t25 7h240q24 0 34.5 -9t10.5 -28q0 -4 -3 -24q-32 -183 -32 -423q0 -245 49.5 -416.5 t108.5 -171.5t126 200.5t67 445.5q0 133 -27 264.5t-27 134.5q0 11 12.5 19t28.5 8h180h25q37 0 52.5 -59t15.5 -212q0 -240 -52.5 -481t-150.5 -451q-76 -164 -154.5 -275.5t-109.5 -111.5q-27 0 -69 51.5t-101 157.5q-43 77 -91 183t-63 106q-20 0 -64.5 -100.5 t-88.5 -173.5l-9 -16q-124 -208 -164 -208q-39 0 -99.5 84t-127.5 232q-90 201 -131 399.5t-41 443.5z" />
<glyph unicode="X" horiz-adv-x="1196" d="M45 70q0 94 38 221.5t101 238.5q48 83 129.5 171.5t81.5 125.5q0 31 -72 120.5t-108 162.5q-45 92 -68.5 189t-23.5 192q0 46 7.5 58t29.5 12h256q40 0 41 -64q1 -91 16 -172q28 -147 72 -236.5t88 -89.5q56 0 104.5 128.5t48.5 295.5q0 13 -1 43.5t-1 49.5 q0 24 9.5 34.5t29.5 10.5h205q34 0 44.5 -20t10.5 -87q0 -103 -21.5 -201.5t-62.5 -179.5q-36 -72 -104 -151t-68 -103q0 -33 73.5 -120.5t113.5 -168.5q57 -114 84.5 -234t27.5 -253q0 -27 -9 -35t-36 -8h-233q-68 0 -74 106q-4 72 -12 121q-24 150 -81 261.5t-99 111.5 q-37 0 -97 -79t-96 -183q-19 -57 -34 -129t-21 -133q-1 -9 -1 -22q-3 -54 -46 -54h-178h-9q-38 0 -46.5 13.5t-8.5 56.5z" />
<glyph unicode="Y" horiz-adv-x="1196" d="M33 1458q0 57 11 80t38 23h250q22 0 31.5 -10t9.5 -35q0 -12 -3 -53t-3 -70q0 -198 87.5 -366.5t155.5 -168.5q21 0 63.5 51t88.5 133q52 97 75 177.5t23 160.5q0 48 -4 97l-4 49q0 19 8.5 27t28.5 8h211q31 0 44 -30.5t13 -109.5q0 -133 -48.5 -257.5t-182.5 -305.5 q-167 -227 -228 -388t-61 -341q0 -29 3 -60.5t3 -35.5q0 -19 -12 -26t-43 -7h-217q-34 0 -48 23.5t-14 85.5q0 124 66.5 273t66.5 165q0 33 -97.5 140.5t-162.5 215.5q-74 126 -111.5 265t-37.5 290z" />
<glyph unicode="Z" horiz-adv-x="1161" d="M47 74q0 102 51 243.5t152 317.5q100 176 249.5 373t149.5 252q0 34 -35 56.5t-90 22.5q-100 0 -190 -56l-90 -56q-7 0 -14 7.5t-11 20.5l-94 254q-1 3 -2 7q-4 13 -4 24q0 8 11.5 14t25.5 7h854q66 0 92 -15t26 -51q0 -61 -68.5 -177t-236.5 -333q-163 -212 -255.5 -376 t-92.5 -236q0 -66 42 -100.5t122 -34.5q137 0 279 98q38 26 49 26q7 0 15 -7.5t13 -20.5l99 -271q3 -9 4.5 -17.5t1.5 -14.5q0 -19 -10 -25t-60 -6h-901q-52 0 -67 13t-15 61z" />
<glyph unicode="[" horiz-adv-x="748" d="M74 1014q0 324 20 434.5t74 110.5h483q32 0 39.5 -10.5t7.5 -39.5q0 -78 -18 -134t-43 -56q-4 0 -23 6q-82 25 -155 25q-39 0 -54 -17.5t-22 -77.5q-17 -156 -24 -276t-7 -246q0 -132 10 -250.5t27 -193.5q10 -43 28 -60.5t54 -17.5q39 0 99 16.5t79 16.5q25 0 38 -45 q3 -10 5 -16q18 -54 26.5 -91.5t8.5 -58.5t-11.5 -27t-49.5 -6h-476q-48 0 -60 106q-5 47 -9 78q-25 176 -36 361t-11 469z" />
<glyph unicode="\" horiz-adv-x="563" d="M-29 1538q0 9 8.5 15t22.5 6h70q24 0 36 -9.5t21 -38.5l434 -1484q2 -7 3 -13.5t1 -17.5q0 -10 -8.5 -16.5t-21.5 -6.5h-70q-24 0 -36.5 10t-20.5 37l-435 1485q-2 7 -3 14t-1 19z" />
<glyph unicode="]" horiz-adv-x="748" d="M23 33q0 21 8.5 58.5t25.5 90.5q2 6 5 16q13 45 38 46q20 0 79.5 -16.5t99.5 -16.5q36 0 53.5 17.5t27.5 60.5q17 75 27 193.5t10 250.5q0 229 -30 504q-2 13 -2 18q-7 61 -21.5 78t-52.5 17q-73 0 -155 -25q-19 -6 -23 -6q-25 0 -43.5 56t-18.5 134q0 29 8 39.5t39 10.5 h482q55 0 75.5 -113t20.5 -432q0 -259 -9 -437.5t-28 -326.5q-5 -39 -12 -100q-16 -150 -70 -150h-473q-38 0 -49.5 6t-11.5 27z" />
<glyph unicode="^" horiz-adv-x="2048" d="M418 899l497 561h218l495 -561h-207l-397 397l-399 -397h-207z" />
<glyph unicode="_" d="M0 -311h1024v-172h-1024v172z" />
<glyph unicode="`" d="M250 1493q0 52 23 92.5t57 40.5q9 0 23.5 -4t29.5 -10l385 -158q27 -11 36 -19.5t9 -21.5q0 -33 -17.5 -66.5t-37.5 -33.5q-7 0 -15.5 1.5t-15.5 4.5l-404 113q-44 13 -58.5 25.5t-14.5 35.5z" />
<glyph unicode="a" horiz-adv-x="1014" d="M70 326q0 124 71.5 223t206.5 162q71 33 175 56q98 23 98 71q0 64 -54.5 112.5t-132.5 48.5q-54 0 -97.5 -22.5t-68.5 -65.5q-12 -20 -18 -50.5t-25 -31.5q-51 0 -90 45t-39 111q0 104 92 168t244 64q78 0 149 -20t130 -58q97 -65 137.5 -160.5t40.5 -288.5 q0 -364 26 -615q3 -21 3 -24q0 -41 -17.5 -55t-71.5 -14q-16 0 -62 3t-75 3q-45 0 -121.5 -7.5t-109.5 -7.5q-188 0 -289.5 91.5t-101.5 261.5zM334 371q0 -72 52 -119t134 -47q62 0 88.5 16.5t26.5 54.5v230q0 36 -19.5 55t-58.5 19q-86 0 -154.5 -61t-68.5 -148z" />
<glyph unicode="b" horiz-adv-x="1087" d="M115 911q0 216 11 395.5t24 230.5q7 24 24.5 31t91.5 7h60q61 0 83.5 -5t22.5 -18q0 -29 -28.5 -136.5t-28.5 -170.5q0 -35 12.5 -56.5t32.5 -21.5q26 0 96 26t117 26q149 0 250.5 -154.5t101.5 -392.5q0 -306 -138 -489t-370 -183h-250q-51 0 -68.5 19.5t-23.5 110.5 q-9 134 -14.5 342t-5.5 439zM365 801q0 -25 1 -75t1 -75q0 -184 36 -261t121 -77q103 0 156 90.5t53 266.5q0 174 -57.5 271t-159.5 97q-80 0 -115.5 -55.5t-35.5 -181.5z" />
<glyph unicode="c" horiz-adv-x="940" d="M61 545q0 299 146.5 485.5t374.5 186.5q121 0 198.5 -61t77.5 -155q0 -55 -37.5 -100t-75.5 -45q-18 0 -34 33t-29 49q-23 28 -56.5 43.5t-68.5 15.5q-103 0 -174.5 -113.5t-71.5 -285.5q0 -156 71 -245t196 -89q60 0 108 19t84 57q24 25 39.5 57.5t19.5 32.5 q18 0 28.5 -31.5t10.5 -85.5q0 -161 -96.5 -250.5t-269.5 -89.5q-199 0 -320 155.5t-121 416.5z" />
<glyph unicode="d" horiz-adv-x="1092" d="M92 547q0 277 127 468t301 191q18 0 52 -5t51 -5q33 0 46 16t13 60q0 69 -24.5 160.5t-24.5 109.5q0 20 17.5 26.5t92.5 6.5h48q84 0 103.5 -9t27.5 -55q49 -343 49 -874q0 -214 -8 -389t-15 -208q-5 -23 -16 -31.5t-49 -8.5h-27h-346q-214 0 -316 133.5t-102 413.5z M352 612q0 -150 54.5 -235.5t148.5 -85.5q88 0 128 59t40 191v307q0 115 -28.5 161t-94.5 46q-99 0 -173.5 -130t-74.5 -313z" />
<glyph unicode="e" horiz-adv-x="1012" d="M70 575q0 295 133.5 468.5t359.5 173.5q163 0 266 -88t103 -226q0 -114 -62.5 -192t-199.5 -133q-42 -17 -117 -43q-199 -70 -199 -152q0 -59 64 -98t164 -39q66 0 123.5 19t99.5 54q72 62 93 140q4 14 7 14q21 0 32 -34.5t11 -98.5q0 -165 -112.5 -266t-298.5 -101 q-220 0 -343.5 159.5t-123.5 442.5zM313 739q0 -20 10 -33.5t23 -13.5q9 0 18 2t22 7l237 79q40 14 59.5 39t19.5 62q0 53 -42.5 86.5t-110.5 33.5q-96 0 -166 -80.5t-70 -181.5z" />
<glyph unicode="f" horiz-adv-x="674" d="M23 1012q0 58 13.5 104.5t30.5 54.5q11 5 63.5 9t64.5 25q2 4 21 103.5t58 157.5q45 66 118 97.5t181 31.5q45 0 59.5 -12t14.5 -47q0 -55 -16.5 -124t-28.5 -69q-7 0 -24 4.5t-27 4.5q-41 0 -68.5 -38.5t-27.5 -94.5q0 -17 11 -31t23 -14q19 0 49.5 4t43.5 4 q34 0 47.5 -18.5t13.5 -69.5q0 -66 -7.5 -91.5t-25.5 -25.5q-14 0 -48.5 9t-53.5 9q-45 0 -63.5 -37.5t-18.5 -142.5q0 -247 39 -514.5t39 -271.5q0 -19 -7 -24t-36 -5h-205q-34 0 -42 11t-13 46q-8 49 -13.5 202.5t-5.5 346.5q0 56 1 142.5t1 115.5q0 69 -14.5 99t-46.5 30 q-20 0 -45 -12t-31 -12q-10 0 -17 12.5t-7 30.5z" />
<glyph unicode="g" horiz-adv-x="975" d="M37 207q0 50 20 89.5t67 79.5q18 16 50 41q64 48 64 75q0 14 -70 115t-70 218q0 167 108 278t263 111q18 0 57 -3t60 -3q45 0 78 52q12 19 20 30q30 42 61 71.5t41 29.5q13 0 29 -10.5t53 -43.5q55 -48 70.5 -71.5t15.5 -46.5q0 -16 -57 -27q-14 -3 -20 -4 q-50 -10 -73.5 -25t-23.5 -37q0 -6 51.5 -93.5t51.5 -196.5q0 -136 -62.5 -229.5t-175.5 -127.5q-37 -11 -104 -30q-254 -71 -254 -162q0 -21 19 -33t50 -12q27 0 156.5 47t218.5 47q112 0 165.5 -28.5t53.5 -88.5q0 -24 -21 -80t-55 -116q-10 -21 -25 -33.5t-28 -12.5 q-3 0 -50.5 44.5t-104.5 44.5q-46 0 -174 -46.5t-211 -46.5q-115 0 -179.5 62t-64.5 172zM319 860q0 -86 45.5 -135t124.5 -49q83 0 133 50t50 132q0 90 -45 139.5t-127 49.5q-80 0 -130.5 -52.5t-50.5 -134.5z" />
<glyph unicode="h" horiz-adv-x="1092" d="M135 809q0 267 8.5 436.5t26.5 255.5q10 47 29.5 60.5t62.5 13.5h172q14 0 24.5 -8.5t10.5 -18.5q0 -30 -35 -157t-34 -207q0 -30 8 -47t22 -17q22 0 101 43t147 43q159 0 225 -137t66 -506q0 -129 -6.5 -239.5t-16.5 -166.5q-2 -10 -5 -30q-20 -126 -75 -127h-190 q-28 0 -36.5 7.5t-8.5 25.5q0 4 8 32q84 283 84 633q0 165 -34.5 232t-115.5 67q-92 0 -142 -111.5t-50 -318.5q0 -274 52 -507q5 -23 5 -27q0 -19 -7 -26t-38 -7h-172q-29 0 -41.5 9.5t-19.5 35.5q-8 30 -16.5 254t-8.5 510z" />
<glyph unicode="i" horiz-adv-x="526" d="M115 283v235q0 174 6 329t16 265q1 4 1 10q5 63 122 64h29q71 0 86.5 -7t15.5 -32q0 -13 -5 -62q-17 -185 -17 -348q0 -296 52 -616q11 -69 11 -84q0 -23 -19.5 -30t-119.5 -7h-109q-42 0 -55.5 49t-13.5 234zM154 1444q0 53 38.5 89t96.5 36q61 0 98 -34.5t37 -90.5 q0 -58 -36 -91.5t-99 -33.5q-62 0 -98.5 34t-36.5 91z" />
<glyph unicode="j" horiz-adv-x="602" d="M-23 82q0 65 26.5 143t47.5 78q12 0 38 -21.5t44 -21.5q43 0 60.5 65.5t17.5 258.5q0 268 -30 522q-5 37 -5 43q0 21 22 29t87 8q85 0 115.5 -6.5t35.5 -21.5q8 -25 14.5 -190t6.5 -393q0 -327 -74 -466.5t-240 -139.5q-73 0 -119.5 31.5t-46.5 81.5zM160 1446 q0 52 39.5 88.5t97.5 36.5q62 0 98.5 -34.5t36.5 -90.5q0 -58 -36.5 -91.5t-100.5 -33.5q-62 0 -98.5 34t-36.5 91z" />
<glyph unicode="k" horiz-adv-x="1012" d="M119 809q0 240 6.5 392.5t19.5 252.5q11 75 27.5 98t52.5 23h172q20 0 28.5 -7.5t8.5 -25.5q0 -16 -15 -93q-63 -308 -63 -562v-78q0 -48 10.5 -72t30.5 -24q41 0 91 73t87 191q20 62 35 141q14 72 45 72h168q25 0 32 -5.5t7 -23.5q0 -44 -16 -103.5t-45 -123.5 q-28 -62 -81.5 -139t-53.5 -101q0 -36 92 -135t133 -190q29 -64 47 -149.5t18 -156.5q0 -39 -9 -51t-38 -12h-192q-45 0 -48 89q-2 45 -5 72q-24 191 -65.5 277t-109.5 86q-49 0 -73.5 -33t-24.5 -102q0 -92 24.5 -217.5t24.5 -151.5q0 -9 -11 -14.5t-32 -5.5h-192 q-29 0 -41.5 9.5t-20.5 36.5q-8 26 -16 250.5t-8 512.5z" />
<glyph unicode="l" horiz-adv-x="528" d="M125 809q0 248 8 413.5t25 256.5q11 67 30 80.5t117 13.5q103 0 125.5 -5t22.5 -20q0 -7 -10 -51q-70 -331 -70 -709q0 -347 60 -696q9 -57 9 -67q0 -17 -2.5 -21t-15.5 -4h-33h-180q-29 0 -40.5 9t-19.5 37q-8 31 -17 255t-9 508z" />
<glyph unicode="m" horiz-adv-x="1657" d="M117 385q0 250 7.5 452t20.5 313q9 73 32.5 89t133.5 16h27q67 0 84.5 -7t17.5 -27q0 -14 -9 -37t-9 -35q0 -20 8 -29.5t25 -9.5q12 0 84.5 38t140.5 38q67 0 145 -51.5t88 -51.5q9 0 99 51.5t178 51.5q171 0 253.5 -150t82.5 -461q0 -124 -7 -236.5t-20 -207.5 q-1 -5 -2 -15q-16 -116 -102 -116q-23 0 -62 1t-55 1h-45q-25 0 -33 3t-8 11q0 17 16 85q60 262 60 491q0 178 -50.5 280.5t-136.5 102.5q-66 0 -97.5 -37.5t-31.5 -116.5q0 -21 3 -108t3 -154q0 -160 -7 -254.5t-21 -183.5q-1 -7 -3 -20q-16 -101 -104 -101q-26 0 -69.5 1 t-61.5 1h-28q-27 0 -34 5t-7 20q0 14 17 85q75 309 75 576q0 145 -35 210t-113 65q-98 0 -148 -98t-50 -290q0 -213 42 -466q13 -74 13 -93q0 -8 -12.5 -11t-51.5 -3h-41h-65h-33q-45 0 -60 7.5t-24 29.5q-11 26 -15.5 104t-4.5 242z" />
<glyph unicode="n" horiz-adv-x="1090" d="M123 494q0 215 6.5 382t19.5 272q10 76 34 91.5t130 15.5q92 0 111.5 -7.5t19.5 -28.5q0 -13 -9 -36t-9 -34q0 -20 8.5 -29.5t26.5 -9.5t89 37t134 37q152 0 215.5 -135t63.5 -492q0 -144 -7.5 -252t-23.5 -192q-2 -9 -4 -23q-16 -90 -103 -90q-34 0 -74 1t-46 1h-43 q-23 0 -30 6.5t-7 24.5q0 5 9 38q83 296 83 636q0 138 -35 196t-117 58q-92 0 -142 -98.5t-50 -280.5q0 -276 51 -516q6 -29 6 -33q0 -20 -8 -26.5t-39 -6.5h-12h-103h-32q-60 0 -75.5 10t-23.5 41q-8 29 -11 122t-3 321z" />
<glyph unicode="o" horiz-adv-x="1085" d="M72 590q0 284 129 454t344 170q202 0 327 -163.5t125 -434.5q0 -288 -130.5 -465.5t-340.5 -177.5q-203 0 -328.5 170t-125.5 447zM313 637q0 -162 60.5 -257t163.5 -95q97 0 159 101.5t62 264.5q0 156 -60 249t-157 93q-104 0 -166 -96.5t-62 -259.5z" />
<glyph unicode="p" horiz-adv-x="1087" d="M119 502q0 225 8.5 388.5t24.5 235.5q13 60 37.5 75.5t113.5 15.5q409 0 552.5 -86t143.5 -297q0 -121 -46 -230t-136 -201q-67 -66 -138.5 -109.5t-109.5 -43.5q-31 0 -69 32t-99 111h-16q-1 -14 -1.5 -28.5t-0.5 -40.5q0 -84 17.5 -186.5t17.5 -117.5q0 -10 -11 -15 t-34 -5h-185q-27 0 -37.5 7t-15.5 26q-8 35 -12 155t-4 314zM377 651q0 -115 19 -143.5t71 -28.5q103 0 201 94.5t98 208.5q0 95 -64.5 154t-166.5 59q-96 0 -127 -67t-31 -277z" />
<glyph unicode="q" horiz-adv-x="1096" d="M82 834q0 211 143.5 297t552.5 86q90 0 115.5 -16t38.5 -75q15 -69 23 -230t8 -394q0 -176 -3.5 -287t-11.5 -170q-3 -28 -13.5 -36.5t-39.5 -8.5h-199q-15 0 -23.5 7.5t-8.5 21.5q0 9 7 47q27 148 27 280q0 8 -1 20.5t-1 16.5h-16q-61 -79 -98.5 -111t-69.5 -32 q-38 0 -109.5 43.5t-138.5 109.5q-90 92 -136 201t-46 230zM315 782q0 -113 98 -207t203 -94q51 0 70 28.5t19 143.5v17q0 196 -31 260.5t-125 64.5q-103 0 -168.5 -59.5t-65.5 -153.5z" />
<glyph unicode="r" horiz-adv-x="862" d="M133 1055q0 88 13 111.5t63 23.5q90 0 125.5 -3t40.5 -10q5 -5 14 -43t43 -38q24 0 92.5 59t137.5 59q72 0 120.5 -54t48.5 -134q0 -73 -49.5 -135t-87.5 -62q-2 0 -45.5 62.5t-99.5 62.5q-76 0 -119 -90t-43 -252q0 -242 54 -502q12 -58 11 -71q0 -24 -18 -31.5 t-100 -7.5h-62q-79 0 -93.5 16.5t-20.5 93.5q-11 144 -17 339t-6 411q0 47 -1 111.5t-1 83.5z" />
<glyph unicode="s" horiz-adv-x="936" d="M59 311q0 73 24.5 134t41.5 61q3 0 18.5 -42t38.5 -79q44 -67 110.5 -106t137.5 -39q78 0 124 35.5t46 95.5q0 67 -154 139q-17 8 -26 12q-201 96 -262.5 171.5t-61.5 191.5q0 154 105 243t288 89q130 0 234 -57t104 -113q0 -43 -53.5 -116t-87.5 -73q-10 0 -75.5 76 t-151.5 76q-54 0 -89.5 -31t-35.5 -74q0 -82 170 -154q47 -20 74 -32q158 -73 228.5 -162.5t70.5 -216.5q0 -169 -119.5 -268t-323.5 -99q-171 0 -273 92t-102 246z" />
<glyph unicode="t" horiz-adv-x="674" d="M33 1014q0 10 8 50.5t20 80.5q7 22 17 30.5t31 8.5q9 0 20 -1t14 -1q70 0 87 100q6 37 12 56q8 29 93 64.5t138 35.5q20 0 26.5 -5.5t6.5 -19.5q0 -22 -22.5 -83.5t-22.5 -96.5q0 -26 19.5 -38.5t60.5 -12.5q6 0 18 1t16 1q33 0 43.5 -9.5t10.5 -39.5q0 -83 -11.5 -118.5 t-37.5 -35.5q-13 0 -38 9t-36 9q-49 0 -68.5 -51.5t-19.5 -202.5q0 -353 113 -586q14 -30 14 -36q0 -12 -11.5 -27t-30.5 -27q-70 -45 -124 -71.5t-76 -26.5q-52 0 -87.5 162.5t-35.5 413.5q0 111 6.5 230t6.5 126q0 49 -13.5 69.5t-44.5 20.5q-12 0 -39 -9t-41 -9 q-10 0 -16 10t-6 29z" />
<glyph unicode="u" horiz-adv-x="1092" d="M121 618q0 137 7 252.5t19 181.5q2 10 5 27q17 111 71 111h195q25 0 32 -6t7 -27q0 -6 -10 -44q-80 -310 -80 -648q0 -140 34 -201t111 -61q98 0 148.5 99t50.5 292q0 283 -53 530q-7 29 -7 33q0 19 8.5 26t36.5 7h183q50 0 66 -51t16 -256v-150q0 -253 -4.5 -384 t-14.5 -220l-1 -5q-16 -142 -173 -142q-56 0 -85.5 5t-35.5 15q-3 5 -6 16q-9 29 -35 29q-3 0 -70.5 -37t-138.5 -37q-150 0 -213 139.5t-63 505.5z" />
<glyph unicode="v" horiz-adv-x="973" d="M41 1128q0 40 13 51t50 11h170q25 0 32 -4t7 -21q0 -1 -2 -31.5t-2 -58.5q0 -303 61 -523t126 -220q58 0 117 187.5t59 430.5q0 84 -12 174q-3 22 -3 27q0 23 11.5 31t42.5 8h137q38 0 48.5 -12.5t10.5 -63.5v-70q0 -203 -44.5 -401.5t-125.5 -355.5q-63 -122 -151 -218 t-115 -96q-46 0 -145 129.5t-164 305.5q-53 141 -87 345t-34 375z" />
<glyph unicode="w" horiz-adv-x="1386" d="M59 1018q0 118 12 145t64 27h156q24 0 37.5 -5.5t13.5 -15.5q0 -2 -2 -17q-14 -103 -14 -214q0 -209 48.5 -380t94.5 -171q55 0 94 152.5t39 394.5q0 70 -7 140t-7 71q0 25 11 32t50 7h150q22 0 28.5 -4.5t6.5 -24.5q0 -9 -4.5 -58.5t-4.5 -90.5q0 -260 40.5 -432.5 t90.5 -172.5q45 0 88 134t43 303q0 145 -10 288q-2 26 -2 31q0 20 13.5 26.5t46.5 6.5h108q49 0 60.5 -26t11.5 -148q0 -218 -39.5 -400t-118.5 -327q-73 -136 -142.5 -225t-99.5 -89q-17 0 -49 42.5t-78 123.5q-23 42 -54 108q-36 75 -50 75q-17 0 -49 -68t-57 -109 q-52 -84 -86 -128t-48 -44q-29 0 -90.5 78t-117.5 195q-89 184 -133 375t-44 395z" />
<glyph unicode="x" horiz-adv-x="938" d="M53 86q0 65 19 142t53 147t90.5 140.5t56.5 86.5q0 19 -48.5 77.5t-73.5 104.5q-35 62 -53.5 148.5t-18.5 187.5q0 48 8 59t35 11h180q41 -1 43 -51t8 -92q17 -115 55.5 -187t79.5 -72q34 0 68.5 59.5t52.5 153.5q10 48 16 114q7 75 38 75h143q33 0 43 -10.5t10 -49.5 q0 -66 -18.5 -143t-51.5 -141q-30 -60 -86.5 -122t-56.5 -83q0 -28 62.5 -88t95.5 -111q45 -71 68.5 -156t23.5 -180q0 -74 -7.5 -90t-29.5 -16h-188q-43 1 -45 63q-3 75 -19 136q-27 101 -76 173t-84 72q-39 0 -74.5 -62t-56.5 -169q-13 -70 -18 -150q-4 -63 -49 -63h-150 q-30 0 -37.5 12.5t-7.5 73.5z" />
<glyph unicode="y" horiz-adv-x="975" d="M59 1104q0 51 10 68.5t46 17.5h207q22 0 31 -4t9 -12q0 -13 -6 -58t-6 -80q0 -149 78 -290.5t135 -141.5q50 0 87.5 113t37.5 278q0 56 -7 113t-7 59q0 12 6 17.5t20 5.5h177q33 0 42 -19.5t9 -103.5q0 -222 -69 -425.5t-200 -369.5q-112 -141 -252.5 -220t-277.5 -79 q-37 0 -47 8t-10 46v204q0 16 5 21.5t17 5.5q6 0 19 -2t22 -2q106 0 184 39.5t78 83.5q0 22 -66.5 78.5t-107.5 113.5q-82 115 -123 248.5t-41 286.5z" />
<glyph unicode="z" horiz-adv-x="864" d="M41 76q0 97 33.5 199t120.5 253q77 136 187 265t110 151q0 18 -21 29.5t-55 11.5q-100 0 -209 -38q-26 -9 -33 -9q-9 0 -15.5 10.5t-19.5 57.5q-13 53 -21.5 96t-8.5 53q0 23 6.5 29t36.5 6h577q59 0 73.5 -17.5t14.5 -72.5q0 -183 -145 -350q-40 -45 -62 -72 q-117 -144 -190.5 -256.5t-73.5 -142.5q0 -34 18 -45t76 -11q102 0 238 36q37 9 45 9q11 0 21 -14t16 -39q17 -69 29 -128t12 -69t-10 -14t-35 -4h-623q-60 0 -76 13t-16 63z" />
<glyph unicode="{" d="M162 442v179q7 0 21.5 -1.5t21.5 -1.5q126 0 178.5 59t52.5 202v247q0 145 23 206.5t80 94.5q44 27 109 38.5t181 11.5h45v-179q-8 0 -24 1t-23 1q-109 0 -147.5 -41.5t-38.5 -173.5v-241q0 -155 -44 -220.5t-159 -93.5q114 -27 158.5 -92.5t44.5 -220.5v-240 q0 -132 39.5 -174.5t148.5 -42.5q7 0 22 1t23 1v-176h-63q-102 0 -165.5 12t-106.5 37q-57 34 -80 96t-23 203v248q0 144 -52.5 203t-178.5 59q-7 0 -21.5 -1t-21.5 -1z" />
<glyph unicode="|" d="M424 -483v2048h178v-2048h-178z" />
<glyph unicode="}" d="M152 -238q8 0 23 -1t22 -1q109 0 147.5 42t38.5 175v240q0 153 45 219t160 94q-115 28 -160 93.5t-45 220.5v241q0 132 -38 173.5t-146 41.5q-7 0 -23 -1t-24 -1v179h45q115 0 179.5 -11.5t108.5 -38.5q57 -33 80 -95t23 -206v-247q0 -144 52 -202.5t179 -58.5 q6 0 21 1.5t22 1.5v-179q-7 0 -21.5 1t-21.5 1q-126 0 -178.5 -59t-52.5 -203v-248q0 -143 -23 -204t-80 -95q-43 -26 -108 -37.5t-180 -11.5h-45v176z" />
<glyph unicode="~" horiz-adv-x="1706" d="M178 434v187q106 72 202 107.5t185 35.5q62 0 125.5 -12t168.5 -48q13 -4 42 -15q164 -58 250 -58q85 0 177 37t202 116v-184q-103 -71 -197.5 -106t-183.5 -35q-44 0 -92.5 8.5t-98.5 26.5q-25 8 -76 26q-212 74 -319 74q-82 0 -174 -38t-211 -122z" />
<glyph unicode="&#xa1;" horiz-adv-x="598" d="M33 6q0 4 76.5 225.5t76.5 466.5q0 156 -16 297q-2 19 -2 23q0 16 12.5 22.5t42.5 6.5h35q56 0 71 -13.5t29 -66.5q44 -146 70.5 -337t26.5 -362q0 -180 -17 -238.5t-84 -58.5q-197 0 -259 7.5t-62 27.5zM51 1403q0 87 63 150t150 63q91 0 152 -61t61 -152 q0 -90 -62 -152.5t-151 -62.5t-151 62.5t-62 152.5z" />
<glyph unicode="&#xa2;" horiz-adv-x="1124" d="M162 547q0 289 121 464.5t346 211.5q1 13 4 37q8 90 92 90q39 0 49 -6.5t10 -28.5q0 -13 -4 -33.5t-12 -50.5q101 -18 156 -73t55 -138q0 -66 -41 -114t-90 -48q-14 0 -43 57.5t-86 67.5q-3 -37 -11 -125q-26 -269 -26 -455q0 -37 1.5 -68.5t4.5 -59.5q11 -2 20.5 -2.5 t22.5 -0.5q126 0 191 139q8 17 10 17q24 0 36.5 -39.5t12.5 -114.5q0 -102 -62 -177t-176 -111q11 -25 30.5 -66t19.5 -51q0 -8 -10 -16.5t-24 -12.5l-93 -24q-1 0 -3 -1q-9 -1 -16 -1q-16 0 -25.5 24.5t-27.5 128.5q-214 14 -323 160.5t-109 419.5zM420 608q0 -110 38 -188 t113 -119v66q0 43 -1 129t-1 129q0 121 21 328l2 17q-72 -17 -122 -120.5t-50 -241.5z" />
<glyph unicode="&#xa3;" horiz-adv-x="1124" d="M59 791q0 37 10.5 48t41.5 15q27 3 62 4.5t36 7.5q0 5 -8 26q-39 102 -39 195q0 204 123 331.5t317 127.5q150 0 268.5 -89.5t118.5 -184.5q0 -45 -52.5 -86t-98.5 -41q-20 0 -83.5 70.5t-150.5 70.5q-81 0 -132.5 -56t-51.5 -145q0 -124 23 -181.5t73 -57.5q18 0 74 7 t94 7q42 0 58 -16t16 -60q0 -52 -21 -71t-92 -19h-61q-3 0 -16 1t-23 1q-24 0 -34.5 -5t-10.5 -15q0 -8 19.5 -74t19.5 -127q0 -54 -13.5 -104t-38.5 -88q15 2 28 3t26 1q32 0 100 -13.5t102 -13.5q106 0 172 75.5t66 192.5v25q0 28 6 41.5t19 13.5q34 0 65 -76t31 -176 q0 -161 -92.5 -265.5t-233.5 -104.5q-58 0 -166 35.5t-168 35.5q-48 0 -140.5 -38.5t-151.5 -38.5q-46 0 -66.5 15.5t-20.5 51.5v117q0 26 8.5 35.5t30.5 9.5q14 0 35.5 -1t28.5 -1q75 0 112 49.5t37 149.5q0 159 -24 232t-76 73q-6 0 -43 -4.5t-68 -4.5q-28 0 -36.5 17 t-8.5 72z" />
<glyph unicode="&#xa4;" horiz-adv-x="1241" d="M76 432l203 205q-40 53 -60 115.5t-20 132.5q0 69 20 131.5t60 116.5l-203 204l92 93l203 -203q55 41 117 61.5t133 20.5t134 -20.5t117 -61.5l203 203l94 -93l-204 -204q39 -54 59 -116.5t20 -131.5q0 -70 -20 -132.5t-59 -115.5l204 -205l-94 -92l-203 205 q-57 -42 -118 -62t-131 -20q-72 0 -135 20.5t-117 61.5l-203 -205zM332 885q0 -120 84.5 -204.5t206.5 -84.5q121 0 205.5 84.5t84.5 204.5q0 119 -85.5 205t-204.5 86q-120 0 -205.5 -86t-85.5 -205z" />
<glyph unicode="&#xa5;" horiz-adv-x="1384" d="M35 739v62q0 17 4.5 21.5t17.5 4.5h293q-40 60 -70 116.5t-49 107.5h-170q-14 0 -20 6t-6 20v62q0 16 4.5 21t17.5 5h142q-17 60 -25 122t-8 138q0 59 10.5 81t36.5 22h229q22 0 30.5 -9.5t8.5 -33.5q0 -10 -3 -50.5t-3 -70.5q0 -193 85.5 -358.5t152.5 -165.5 q20 0 62.5 51t84.5 129q53 98 75.5 176t22.5 156q0 46 -5 93t-5 48q0 18 9 26.5t28 8.5h191q30 0 42.5 -30t12.5 -107q0 -47 -9.5 -100.5t-29.5 -125.5h135q15 0 22 -6t7 -20v-62q0 -15 -5.5 -20.5t-19.5 -5.5h-190q-42 -72 -80.5 -130.5t-67.5 -93.5h334q15 0 22 -6t7 -20 v-62q0 -15 -5.5 -20.5t-19.5 -5.5h-416q-100 -148 -147 -290.5t-47 -295.5q0 -27 3 -58.5t3 -35.5q0 -19 -11.5 -26t-41.5 -7h-178q-33 0 -46.5 22.5t-13.5 83.5q0 123 65.5 268t65.5 165q0 32 -89 125q-30 31 -46 49h-371q-14 0 -20 6t-6 20z" />
<glyph unicode="&#xa6;" d="M424 -350v758h178v-758h-178zM424 674v758h178v-758h-178z" />
<glyph unicode="&#xa7;" d="M72 829q0 86 37.5 146t117.5 100q-43 38 -63.5 87t-20.5 112q0 143 99 227t268 84q140 0 254.5 -58.5t114.5 -115.5q0 -39 -51.5 -111.5t-84.5 -72.5q-11 0 -85.5 75.5t-153.5 75.5q-52 0 -84.5 -26t-32.5 -66q0 -30 21.5 -53.5t95.5 -61.5l188 -100q144 -76 206.5 -151 t62.5 -170q0 -79 -41.5 -145t-112.5 -99q53 -43 77.5 -93t24.5 -114q0 -144 -109.5 -233t-289.5 -89q-160 0 -279.5 58t-119.5 121q0 39 50 113.5t72 74.5q1 0 105 -80t192 -80q56 0 92.5 28.5t36.5 70.5q0 27 -15.5 49t-47.5 41l-281 151q-134 74 -188.5 144t-54.5 161z M313 889q0 -42 40 -88t108 -82l178 -92q11 -6 21 -12.5t20 -14.5q23 19 35 40.5t12 45.5q0 49 -39 96t-110 84l-177 92q-12 6 -23.5 13.5t-19.5 13.5q-21 -15 -33 -40t-12 -56z" />
<glyph unicode="&#xa8;" d="M190 1485q0 51 34.5 86t84.5 35t84.5 -35.5t34.5 -85.5q0 -49 -35 -84t-84 -35t-84 34.5t-35 84.5zM633 1485q0 51 34 86t85 35q49 0 83.5 -35.5t34.5 -85.5q0 -49 -34.5 -84t-83.5 -35q-50 0 -84.5 34.5t-34.5 84.5z" />
<glyph unicode="&#xa9;" horiz-adv-x="1706" d="M113 731q0 145 57 280.5t164 243.5q105 107 235.5 161t282.5 54t286 -55t240 -162q105 -105 160 -238.5t55 -283.5q0 -153 -54.5 -286t-158.5 -234q-108 -107 -244.5 -164t-283.5 -57q-146 0 -280 56.5t-240 162.5q-107 106 -163 240.5t-56 281.5zM223 731 q0 -126 48 -240t139 -204q90 -91 204.5 -139t239.5 -48t240 48.5t209 140.5q89 88 135.5 200.5t46.5 241.5t-47 243.5t-135 203.5q-91 90 -205 137t-244 47t-243 -46.5t-201 -135.5q-90 -92 -138.5 -208t-48.5 -241zM457 725q0 208 109.5 331.5t291.5 123.5q147 0 243 -77 t105 -199l-166 -1q-10 74 -60 114t-130 40q-99 0 -155 -86.5t-56 -239.5q0 -152 57.5 -234.5t163.5 -82.5q80 0 129 43.5t60 124.5h165q-7 -135 -106.5 -217t-253.5 -82q-183 0 -290 119t-107 323z" />
<glyph unicode="&#xaa;" horiz-adv-x="760" d="M53 954q0 88 54 157.5t155 113.5q53 22 130 39q73 15 73 49q0 46 -40 80t-99 34q-40 0 -73 -16t-52 -45q-9 -15 -13.5 -36t-17.5 -21q-39 0 -68.5 31t-29.5 77q0 73 68.5 117.5t183.5 44.5q58 0 112 -14.5t96 -40.5q74 -46 105 -112.5t31 -201.5q0 -256 19 -431 q1 -13 1 -15q0 -29 -12.5 -39t-52.5 -10q-13 0 -47.5 2t-55.5 2q-34 0 -92 -5t-82 -5q-141 0 -217 63.5t-76 181.5zM250 987q0 -50 39.5 -83.5t101.5 -33.5q46 0 66 12t20 40v159q0 26 -14.5 39t-44.5 13q-65 0 -116.5 -42.5t-51.5 -103.5z" />
<glyph unicode="&#xab;" horiz-adv-x="1020" d="M84 596q0 6 3 13.5t9 16.5l240 361q6 11 14.5 17t16.5 6q6 0 13.5 -3.5t17.5 -11.5l96 -75q11 -9 16.5 -16.5t5.5 -14.5t-4 -13.5t-12 -15.5l-236 -260l234 -283q7 -9 9.5 -13.5t2.5 -8.5q0 -6 -5 -13t-16 -16l-90 -71q-11 -9 -20 -13t-14 -4q-6 0 -12 5.5t-15 17.5 l-242 358q-6 9 -9 18.5t-3 18.5zM524 596q0 6 3.5 14t8.5 16l240 361q7 11 15 17t16 6q7 0 15 -4t16 -11l96 -75q11 -9 16.5 -16.5t5.5 -14.5t-3.5 -13.5t-12.5 -15.5l-235 -260l233 -283q7 -8 9.5 -13t2.5 -9q0 -6 -5 -13t-15 -16l-90 -71q-14 -10 -21 -13.5t-12 -3.5 q-6 0 -13 5.5t-16 17.5l-242 359q-6 9 -9 18t-3 18z" />
<glyph unicode="&#xac;" horiz-adv-x="1706" d="M254 696v166h1198v-502h-166v336h-1032z" />
<glyph unicode="&#xad;" horiz-adv-x="680" d="M70 504q0 31 17.5 87t41.5 95q12 19 26 26t38 7h348q31 0 41 -6t10 -27q0 -39 -19 -102t-38 -90q-11 -16 -24 -20.5t-46 -4.5h-342q-33 0 -43 6.5t-10 28.5z" />
<glyph unicode="&#xae;" horiz-adv-x="1706" d="M113 731q0 147 57.5 284t165.5 245q104 104 234.5 157t281.5 53q153 0 288.5 -56t241.5 -165q103 -104 157 -236.5t54 -281.5q0 -153 -55.5 -287t-161.5 -237q-108 -105 -243 -161t-281 -56q-147 0 -282.5 57.5t-241.5 165.5q-105 106 -160 239t-55 279zM223 731 q0 -125 47 -238.5t136 -203.5q90 -91 204 -140t234 -49q130 0 246.5 47t209.5 138q89 86 137 198.5t48 237.5q0 133 -45.5 247.5t-134.5 205.5q-93 92 -207.5 140t-243.5 48t-240 -45.5t-200 -134.5q-92 -94 -141.5 -210t-49.5 -241zM551 330v829h319q173 0 262 -57t89 -168 q0 -91 -48 -150.5t-137 -78.5l185 -375h-199l-164 346h-129v-346h-178zM729 786h117q100 0 146 30.5t46 96.5q0 69 -48 101.5t-152 32.5h-109v-261z" />
<glyph unicode="&#xaf;" d="M254 1444v72q0 14 9.5 22t27.5 8h477q24 0 33.5 -6.5t9.5 -23.5v-72q0 -24 -9 -32.5t-34 -8.5h-471q-26 0 -34.5 8t-8.5 33z" />
<glyph unicode="&#xb0;" horiz-adv-x="674" d="M43 1163q0 125 86 211t209 86q121 0 208 -87t87 -210q0 -121 -87 -208t-210 -87t-208 85.5t-85 209.5zM152 1165q0 -76 54.5 -131t131.5 -55t130.5 54.5t53.5 131.5t-53.5 131t-130.5 54t-131.5 -54t-54.5 -131z" />
<glyph unicode="&#xb1;" horiz-adv-x="1706" d="M254 14v168h1198v-168h-1198zM254 707v165h514v334h170v-334h514v-165h-514v-334h-170v334h-514z" />
<glyph unicode="&#xb2;" horiz-adv-x="741" d="M57 676v12q0 74 36 144t110 141q60 58 157 129q17 13 25 18q61 50 79.5 81t18.5 67q0 49 -35.5 82.5t-87.5 33.5q-45 0 -86 -27t-71 -77q-8 -13 -20 -34q-16 -29 -25 -29q-7 0 -11 1.5t-8 6.5l-39 66q-4 7 -13 19q-19 27 -19 44t15.5 42.5t43.5 53.5q42 44 103.5 67 t136.5 23q130 0 212.5 -69t82.5 -179q0 -150 -276 -342l-30 -20q-51 -36 -75.5 -62t-24.5 -45q0 -6 7 -9t22 -3q5 0 32 5t48 5q32 0 82 -12t67 -12q45 0 66.5 20.5t21.5 63.5q0 12 -4 25.5t-4 15.5t2 2q19 0 48.5 -48t29.5 -102q0 -76 -51.5 -123t-135.5 -47 q-29 0 -103 14.5t-116 14.5q-44 0 -99 -15.5t-67 -15.5q-28 0 -36.5 11.5t-8.5 62.5z" />
<glyph unicode="&#xb3;" horiz-adv-x="741" d="M49 725q0 6 4.5 15t13.5 21l101 118q5 4 9 7t7 3q5 0 20 -15q62 -61 140 -61q51 0 83 29.5t32 75.5q0 50 -26.5 83t-80.5 52q-35 12 -100.5 18t-65.5 29q0 21 65 74q34 29 54 47q72 62 99.5 94t27.5 49q0 10 -19 17.5t-48 7.5q-85 0 -184 -33q-26 -8 -34 -8q-10 0 -15 4 t-7 14l-25 117q0 2 -1 7.5t-1 8.5q0 17 9 23t36 6h23h420q24 0 34.5 -8t10.5 -27q0 -53 -13.5 -92t-46.5 -86q-32 -46 -80.5 -92t-48.5 -54q0 -6 36 -20.5t61 -30.5q54 -37 80 -90t26 -125q0 -132 -92.5 -217.5t-233.5 -85.5q-93 0 -181.5 46.5t-88.5 78.5z" />
<glyph unicode="&#xb4;" d="M244 1413q0 14 8.5 22t34.5 19l387 158q3 1 8 3q28 11 43 11q34 0 58 -41t24 -92q0 -23 -14.5 -35.5t-58.5 -25.5l-406 -113q-3 -1 -14 -3.5t-17 -2.5q-18 0 -35.5 34.5t-17.5 65.5z" />
<glyph unicode="&#xb5;" horiz-adv-x="1208" d="M-92 -430l297 1511h229l-125 -635q-6 -29 -9 -55t-3 -49q0 -96 46.5 -146.5t135.5 -50.5q122 0 193.5 88.5t111.5 292.5l109 555h225l-145 -739q-10 -49 -14.5 -81.5t-4.5 -51.5q0 -36 15.5 -51t52.5 -15q13 0 20.5 0.5t13.5 1.5l-32 -159q-32 -9 -68.5 -13t-81.5 -4 q-74 0 -111.5 31.5t-37.5 93.5v15q-41 -67 -108 -104.5t-146 -37.5q-81 0 -137.5 26t-97.5 83l-99 -506h-229z" />
<glyph unicode="&#xb6;" d="M55 1130q0 158 107 253.5t284 95.5h523v-99h-117v-1380h-129v1380h-168v-1380h-131v784q-168 6 -268.5 101t-100.5 245z" />
<glyph unicode="&#xb7;" horiz-adv-x="561" d="M72 766q0 89 62 152t151 63q88 0 150.5 -63t62.5 -152q0 -88 -63 -150.5t-150 -62.5q-91 0 -152 61t-61 152z" />
<glyph unicode="&#xb8;" d="M319 -319q0 15 11 24.5t26 9.5q4 0 76.5 -31.5t140.5 -31.5q47 0 74 19.5t27 54.5q0 33 -30 49t-91 16h-41q-16 0 -20.5 5.5t-4.5 23.5q1 2 2.5 9t2.5 15l18 164h76l-13 -143q14 2 29 3t47 1q80 0 132.5 -40t52.5 -101q0 -69 -64 -109.5t-174 -40.5q-106 0 -191.5 32 t-85.5 71z" />
<glyph unicode="&#xb9;" horiz-adv-x="741" d="M201 1450q0 29 72 59.5t149 30.5q38 0 56 -10t18 -31q0 -7 -7 -42q-34 -175 -34 -345q0 -214 40 -431q7 -36 7 -42v-6q0 -12 -5.5 -16.5t-17.5 -4.5h-172q-20 1 -25 10t-6 64v16q0 153 7.5 355t7.5 252q0 54 -45 93t-45 48z" />
<glyph unicode="&#xba;" horiz-adv-x="815" d="M53 1141q0 198 97.5 317t259.5 119q151 0 244.5 -114t93.5 -304q0 -203 -97.5 -326.5t-255.5 -123.5q-152 0 -247 119t-95 313zM236 1174q0 -114 45.5 -181t121.5 -67q72 0 119 72t47 186q0 108 -45.5 173.5t-117.5 65.5q-77 0 -123.5 -68t-46.5 -181z" />
<glyph unicode="&#xbb;" horiz-adv-x="1020" d="M80 299q0 7 4 13.5t12 15.5l236 260l-234 282q-6 8 -9 14t-3 11q0 4 5.5 11.5t14.5 15.5l93 71q12 9 19.5 13t12.5 4q7 -1 14 -6.5t15 -16.5l240 -359q6 -9 9 -18t3 -18q0 -6 -3 -13.5t-9 -17.5l-240 -360q-7 -11 -15 -17t-16 -6q-6 0 -13.5 3.5t-17.5 11.5l-96 75 q-11 9 -16.5 16.5t-5.5 14.5zM516 299q0 7 4 13.5t12 15.5l236 260l-231 282q-7 8 -10 14t-3 11t5 12t13 14l93 72q12 9 19.5 12.5t13.5 4.5q6 -1 13.5 -6.5t14.5 -16.5l240 -358q6 -10 9 -19t3 -18q0 -6 -3 -14t-9 -17l-240 -360q-6 -11 -14.5 -17t-15.5 -6t-14.5 3.5 t-17.5 11.5l-93 75q-13 10 -19 17.5t-6 13.5z" />
<glyph unicode="&#xbc;" horiz-adv-x="1757" d="M190 1452q0 28 69 57t144 29q37 0 53.5 -9t16.5 -30q0 -7 -6 -39q-33 -163 -33 -323q0 -199 39 -402q6 -33 6 -39v-6q0 -10 -4.5 -14t-15.5 -4h-164q-20 0 -25.5 9t-5.5 60v15q0 143 6 331t6 234q0 53 -43 88.5t-43 42.5zM391 8q0 5 2 12t6 15l795 1462q12 23 30.5 36 t39.5 13h71q15 0 24 -8t9 -20q0 -5 -2 -12t-6 -15l-795 -1462q-12 -23 -30.5 -35t-38.5 -12h-72q-15 0 -24 7t-9 19zM1102 311q0 75 46 167t146 216q83 104 123 138t74 34h14l133 -8q8 0 11 -2.5t4 -9.5q0 -12 -65.5 -67t-106.5 -95q-86 -82 -138.5 -162.5t-52.5 -122.5 q0 -8 6 -11t25 -3q27 0 60.5 6t45.5 12q24 14 40 64q7 22 12 35q30 80 84.5 137t91.5 57q3 0 4.5 -3t1.5 -9q0 -3 -23.5 -79t-23.5 -142q0 -36 18 -51t72 -19q18 -2 25.5 -7t7.5 -19v-109q0 -12 -6 -18.5t-17 -6.5q-7 0 -38.5 6.5t-55.5 6.5q-31 0 -42 -34.5t-11 -164.5v-8 q0 -24 -5 -31.5t-18 -7.5h-135q-14 0 -19.5 6.5t-5.5 24.5q0 49 12.5 115t12.5 77q0 17 -8.5 23t-40.5 6q-49 0 -116.5 -9.5t-82.5 -9.5q-33 0 -46 17t-13 61z" />
<glyph unicode="&#xbd;" horiz-adv-x="1757" d="M190 1452q0 28 69 57t144 29q37 0 53.5 -9t16.5 -30q0 -7 -6 -39q-33 -163 -33 -323q0 -199 39 -402q6 -33 6 -39v-6q0 -10 -4.5 -14t-15.5 -4h-164q-20 0 -25.5 9t-5.5 60v15q0 143 6 331t6 234q0 53 -43 88.5t-43 42.5zM391 8q0 5 2 12t6 15l795 1462q12 23 30.5 36 t39.5 13h71q15 0 24 -8t9 -20q0 -5 -2 -12t-6 -15l-795 -1462q-12 -23 -30.5 -35t-38.5 -12h-72q-15 0 -24 7t-9 19zM1106 59v11q0 69 34.5 135.5t104.5 132.5q46 43 109.5 89.5t64.5 47.5q57 44 74.5 72.5t17.5 62.5q0 47 -33.5 79t-82.5 32q-43 0 -82 -25.5t-68 -72.5 q-9 -13 -20 -34q-14 -26 -25 -26q-5 0 -9.5 2.5t-6.5 5.5l-37 62q-4 6 -12 17q-19 26 -19 42t14.5 40t40.5 50q42 41 100.5 62.5t129.5 21.5q123 0 201.5 -64.5t78.5 -166.5q0 -143 -270 -324l-20 -14q-48 -32 -71.5 -57t-23.5 -43q0 -6 5.5 -8.5t19.5 -2.5q6 0 31 4.5 t45 4.5q32 0 80 -11.5t65 -11.5q42 0 62 19t20 59q0 12 -3 24.5t-3 14.5t2 2q17 0 45.5 -45.5t28.5 -95.5q0 -71 -49.5 -114.5t-128.5 -43.5q-29 0 -98.5 13t-110.5 13q-42 0 -94.5 -14t-63.5 -14q-27 0 -35 10.5t-8 58.5z" />
<glyph unicode="&#xbe;" horiz-adv-x="1759" d="M47 776q0 7 5 16t14 19l94 109q5 4 9 7t7 3q5 0 19 -14q60 -58 135 -58q48 0 78 28t30 70q0 47 -25 78.5t-77 48.5q-34 12 -96 17t-62 26q0 19 60 68q33 27 53 45q71 62 96 90t25 43q0 11 -18.5 18t-47.5 7q-79 0 -173 -31q-26 -8 -32 -8q-10 0 -15 4t-7 14l-23 109 l-1 5.5t-1 8.5q1 16 9 21.5t34 5.5h21h401q24 0 33.5 -7t9.5 -24q0 -49 -13 -86t-44 -82q-32 -42 -76.5 -85t-44.5 -50q0 -6 33.5 -20.5t56.5 -28.5q52 -35 77 -84.5t25 -116.5q0 -122 -89 -202.5t-222 -80.5q-89 0 -173.5 44t-84.5 73zM391 8q0 5 2 12t6 15l795 1462 q12 23 30.5 36t39.5 13h71q15 0 24 -8t9 -20q0 -5 -2 -12t-6 -15l-795 -1462q-12 -23 -30.5 -35t-38.5 -12h-72q-15 0 -24 7t-9 19zM1102 311q0 75 46 167t146 216q83 104 123 138t74 34h14l133 -8q8 0 11 -2.5t4 -9.5q0 -12 -65.5 -67t-106.5 -95q-86 -82 -138.5 -162.5 t-52.5 -122.5q0 -8 6 -11t25 -3q27 0 60.5 6t45.5 12q24 14 40 64q7 22 12 35q30 80 84.5 137t91.5 57q3 0 4.5 -3t1.5 -9q0 -3 -23.5 -79t-23.5 -142q0 -36 18 -51t72 -19q18 -2 25.5 -7t7.5 -19v-109q0 -12 -6 -18.5t-17 -6.5q-7 0 -38.5 6.5t-55.5 6.5q-31 0 -42 -34.5 t-11 -164.5v-8q0 -24 -5 -31.5t-18 -7.5h-135q-14 0 -19.5 6.5t-5.5 24.5q0 49 12.5 115t12.5 77q0 17 -8.5 23t-40.5 6q-49 0 -116.5 -9.5t-82.5 -9.5q-33 0 -46 17t-13 61z" />
<glyph unicode="&#xbf;" horiz-adv-x="864" d="M47 389q0 112 37 204t111 161q53 50 118.5 91.5t66.5 42.5q25 22 28 79t10 72q5 9 27.5 13.5t70.5 4.5q65 0 78.5 -9.5t13.5 -37.5v-195q0 -39 -12 -66.5t-45 -58.5q-27 -25 -83 -69q-155 -123 -155 -224q0 -73 41 -123.5t101 -50.5q72 0 144 97q14 20 17 20q11 0 32 -18 t73 -76q2 -2 5 -6q42 -45 42 -64q0 -59 -100 -131t-224 -72q-171 0 -284 118.5t-113 297.5zM289 1409q0 87 63 150t150 63q90 0 151.5 -61.5t61.5 -151.5q0 -89 -62 -150t-151 -61q-90 0 -151.5 61t-61.5 150z" />
<glyph unicode="&#xc0;" horiz-adv-x="1350" d="M68 426q0 223 64 431.5t187 389.5q100 145 216.5 241.5t179.5 96.5q43 0 117 -58t147 -153q137 -178 199.5 -398t62.5 -532q0 -120 -12.5 -235t-26.5 -160q-9 -30 -25.5 -39.5t-58.5 -9.5h-237q-24 0 -37 4t-13 12t20 57q91 229 91 388q0 74 -27.5 101.5t-101.5 27.5 q-69 0 -155.5 -15.5t-153.5 -39.5q-70 -26 -99.5 -64t-29.5 -102q0 -107 57 -227t57 -126q0 -9 -7.5 -12.5t-26.5 -3.5h-277q-54 0 -82 109.5t-28 316.5zM408 852q0 -30 9.5 -40.5t37.5 -10.5q1 0 101 21.5t214 21.5q96 0 122 12t26 49q0 40 -20 97.5t-54 115.5 q-49 84 -78.5 114t-58.5 30q-34 0 -78.5 -41t-100.5 -123q-63 -94 -91.5 -152t-28.5 -94zM473 1874q0 52 23 92.5t57 40.5q9 0 23.5 -4t29.5 -10l385 -158q27 -11 36 -19.5t9 -21.5q0 -33 -17.5 -66.5t-37.5 -33.5q-7 0 -15.5 1.5t-15.5 4.5l-404 113q-44 13 -58.5 25.5 t-14.5 35.5z" />
<glyph unicode="&#xc1;" horiz-adv-x="1350" d="M68 426q0 223 64 431.5t187 389.5q100 145 216.5 241.5t179.5 96.5q43 0 117 -58t147 -153q137 -178 199.5 -398t62.5 -532q0 -120 -12.5 -235t-26.5 -160q-9 -30 -25.5 -39.5t-58.5 -9.5h-237q-24 0 -37 4t-13 12t20 57q91 229 91 388q0 74 -27.5 101.5t-101.5 27.5 q-69 0 -155.5 -15.5t-153.5 -39.5q-70 -26 -99.5 -64t-29.5 -102q0 -107 57 -227t57 -126q0 -9 -7.5 -12.5t-26.5 -3.5h-277q-54 0 -82 109.5t-28 316.5zM408 852q0 -30 9.5 -40.5t37.5 -10.5q1 0 101 21.5t214 21.5q96 0 122 12t26 49q0 40 -20 97.5t-54 115.5 q-49 84 -78.5 114t-58.5 30q-34 0 -78.5 -41t-100.5 -123q-63 -94 -91.5 -152t-28.5 -94zM467 1794q0 14 8.5 22t34.5 19l387 158q3 1 8 3q28 11 43 11q34 0 58 -41t24 -92q0 -23 -14.5 -35.5t-58.5 -25.5l-406 -113q-3 -1 -14 -3.5t-17 -2.5q-18 0 -35.5 34.5t-17.5 65.5z " />
<glyph unicode="&#xc2;" horiz-adv-x="1350" d="M68 426q0 223 64 431.5t187 389.5q100 145 216.5 241.5t179.5 96.5q43 0 117 -58t147 -153q137 -178 199.5 -398t62.5 -532q0 -120 -12.5 -235t-26.5 -160q-9 -30 -25.5 -39.5t-58.5 -9.5h-237q-24 0 -37 4t-13 12t20 57q91 229 91 388q0 74 -27.5 101.5t-101.5 27.5 q-69 0 -155.5 -15.5t-153.5 -39.5q-70 -26 -99.5 -64t-29.5 -102q0 -107 57 -227t57 -126q0 -9 -7.5 -12.5t-26.5 -3.5h-277q-54 0 -82 109.5t-28 316.5zM408 852q0 -30 9.5 -40.5t37.5 -10.5q1 0 101 21.5t214 21.5q96 0 122 12t26 49q0 40 -20 97.5t-54 115.5 q-49 84 -78.5 114t-58.5 30q-34 0 -78.5 -41t-100.5 -123q-63 -94 -91.5 -152t-28.5 -94zM436 1718q0 3 6 12t15 20l198 230l9 12q18 23 59 23h65q42 0 64 -27q6 -7 10 -12l192 -227q9 -11 15 -20.5t6 -12.5q0 -8 -33.5 -14t-87.5 -6q-21 0 -35 6t-30 25l-134 157l-133 -157 q-13 -18 -28 -24.5t-49 -6.5q-47 0 -78 6.5t-31 15.5z" />
<glyph unicode="&#xc3;" horiz-adv-x="1350" d="M68 426q0 223 64 431.5t187 389.5q100 145 216.5 241.5t179.5 96.5q43 0 117 -58t147 -153q137 -178 199.5 -398t62.5 -532q0 -120 -12.5 -235t-26.5 -160q-9 -30 -25.5 -39.5t-58.5 -9.5h-237q-24 0 -37 4t-13 12t20 57q91 229 91 388q0 74 -27.5 101.5t-101.5 27.5 q-69 0 -155.5 -15.5t-153.5 -39.5q-70 -26 -99.5 -64t-29.5 -102q0 -107 57 -227t57 -126q0 -9 -7.5 -12.5t-26.5 -3.5h-277q-54 0 -82 109.5t-28 316.5zM381 1757q0 96 59 158.5t154 62.5q78 0 195 -42t157 -42q67 0 93.5 49.5t31.5 49.5h39q9 0 13.5 -5.5t4.5 -17.5 q0 -96 -59 -158.5t-154 -62.5q-78 0 -194 43t-156 43q-67 0 -94.5 -49t-32.5 -49h-37q-11 0 -15.5 5t-4.5 15zM408 852q0 -30 9.5 -40.5t37.5 -10.5q1 0 101 21.5t214 21.5q96 0 122 12t26 49q0 40 -20 97.5t-54 115.5q-49 84 -78.5 114t-58.5 30q-34 0 -78.5 -41 t-100.5 -123q-63 -94 -91.5 -152t-28.5 -94z" />
<glyph unicode="&#xc4;" horiz-adv-x="1350" d="M68 426q0 223 64 431.5t187 389.5q100 145 216.5 241.5t179.5 96.5q43 0 117 -58t147 -153q137 -178 199.5 -398t62.5 -532q0 -120 -12.5 -235t-26.5 -160q-9 -30 -25.5 -39.5t-58.5 -9.5h-237q-24 0 -37 4t-13 12t20 57q91 229 91 388q0 74 -27.5 101.5t-101.5 27.5 q-69 0 -155.5 -15.5t-153.5 -39.5q-70 -26 -99.5 -64t-29.5 -102q0 -107 57 -227t57 -126q0 -9 -7.5 -12.5t-26.5 -3.5h-277q-54 0 -82 109.5t-28 316.5zM408 852q0 -30 9.5 -40.5t37.5 -10.5q1 0 101 21.5t214 21.5q96 0 122 12t26 49q0 40 -20 97.5t-54 115.5 q-49 84 -78.5 114t-58.5 30q-34 0 -78.5 -41t-100.5 -123q-63 -94 -91.5 -152t-28.5 -94zM413 1866q0 51 34.5 86t84.5 35t84.5 -35.5t34.5 -85.5q0 -49 -35 -84t-84 -35t-84 34.5t-35 84.5zM856 1866q0 51 34 86t85 35q49 0 83.5 -35.5t34.5 -85.5q0 -49 -34.5 -84 t-83.5 -35q-50 0 -84.5 34.5t-34.5 84.5z" />
<glyph unicode="&#xc5;" horiz-adv-x="1350" d="M68 387q0 205 64 395.5t187 354.5q100 131 216 218t180 87q45 0 118 -52t146 -139q137 -161 199.5 -362t62.5 -486q0 -108 -12.5 -213t-26.5 -145q-9 -28 -25 -36.5t-59 -8.5h-237q-26 0 -38 3.5t-12 10.5q0 8 20 54q91 210 91 352q0 67 -26.5 92t-102.5 25 q-74 0 -159.5 -14t-149.5 -36q-68 -22 -98.5 -58t-30.5 -93q0 -97 57 -207t57 -115q0 -8 -6.5 -11t-27.5 -3h-277q-54 0 -82 99.5t-28 287.5zM408 776q0 -27 9 -37t36 -10q2 0 103 19.5t214 19.5q99 0 123.5 11t24.5 46t-20 87.5t-54 105.5q-49 76 -78.5 103.5t-58.5 27.5 q-30 0 -70 -30.5t-86 -88.5q-70 -90 -106.5 -154.5t-36.5 -99.5zM514 1690q0 84 59 143t144 59q84 0 143.5 -59t59.5 -143q0 -83 -60 -143t-143 -60q-85 0 -144 59t-59 144zM600 1686q0 -50 33.5 -83.5t83.5 -33.5q48 0 82.5 34t34.5 83t-34 82.5t-83 33.5t-83 -33.5 t-34 -82.5z" />
<glyph unicode="&#xc6;" horiz-adv-x="1874" d="M76 403q0 219 54.5 425t156.5 372q94 155 214 258t195 103h1102q19 0 27 -5.5t8 -17.5q0 -8 -0.5 -11t-1.5 -5l-107 -240q-6 -15 -13.5 -23t-16.5 -8q-4 0 -27 14q-123 74 -233 74q-122 0 -191 -72.5t-69 -199.5q0 -42 16.5 -70t40.5 -28q31 0 135.5 45t181.5 45 q69 0 92 -8t23 -27q0 -4 -1 -7.5l-3 -10.5l-86 -244q-1 -3 -3 -8q-8 -26 -18 -27q-4 0 -55 16.5t-98 16.5q-99 0 -162 -70t-63 -180q0 -123 62.5 -195.5t168.5 -72.5q115 0 254 98q41 29 51 29t17 -7t14 -22l121 -274l4.5 -15t1.5 -10q0 -21 -19.5 -31t-58.5 -10h-784 q-68 0 -80.5 10.5t-12.5 65.5v403q0 64 -32.5 88.5t-116.5 24.5q-169 0 -276 -60.5t-107 -158.5q0 -97 58.5 -222t58.5 -133q0 -7 -9.5 -11.5t-25.5 -4.5h-12h-252q-65 0 -94 95t-29 306zM418 844q0 -21 6.5 -32t17.5 -11q18 0 111 25.5t178 25.5q30 0 70.5 -3t50.5 -3 q34 0 44.5 13.5t10.5 68.5v43q0 95 10.5 199t10.5 112q0 33 -12 52.5t-31 19.5q-58 0 -145 -56t-160 -145q-68 -83 -115 -176.5t-47 -132.5z" />
<glyph unicode="&#xc7;" horiz-adv-x="1237" d="M70 786q0 350 177.5 574.5t448.5 224.5q160 0 260.5 -72.5t100.5 -185.5q0 -74 -50 -125t-122 -51h-8q-17 79 -66 119.5t-127 40.5q-146 0 -243 -136t-97 -344q0 -225 113 -371.5t284 -146.5q93 0 173.5 43.5t117.5 112.5q28 49 38.5 97l10.5 48q18 0 41 -65t23 -150 q0 -190 -129.5 -308t-339.5 -118q-279 0 -442.5 219t-163.5 594zM446 -319q0 15 11 24.5t26 9.5q4 0 76.5 -31.5t140.5 -31.5q47 0 74 19.5t27 54.5q0 33 -30 49t-91 16h-41q-16 0 -20.5 5.5t-4.5 23.5q1 2 2.5 9t2.5 15l18 164h76l-13 -143q14 2 29 3t47 1q80 0 132.5 -40 t52.5 -101q0 -69 -64 -109.5t-174 -40.5q-106 0 -191.5 32t-85.5 71z" />
<glyph unicode="&#xc8;" horiz-adv-x="1163" d="M127 649q0 211 20.5 412.5t55.5 343.5q22 95 41 125.5t49 30.5h741q27 0 37 -5.5t10 -17.5q0 -4 -1 -8.5t-3 -7.5l-110 -240q-9 -17 -16 -24t-15 -7q-4 0 -27 14q-128 74 -243 74q-127 0 -199 -72t-72 -200q0 -44 17 -71t45 -27q30 0 138 45t185 45q79 0 101 -7.5 t22 -27.5q0 -4 -0.5 -7t-3.5 -11l-88 -244l-6 -15q-7 -20 -17 -20q-3 0 -57 16.5t-102 16.5q-103 0 -168.5 -70t-65.5 -180q0 -127 65 -197.5t183 -70.5q97 0 202.5 63.5t106.5 63.5q9 0 17 -7.5t14 -21.5l127 -275q3 -7 4.5 -13t1.5 -11q0 -21 -19 -31t-61 -10h-819 q-44 0 -57 13.5t-19 75.5q-5 44 -9.5 205t-4.5 355zM395 1874q0 52 23 92.5t57 40.5q9 0 23.5 -4t29.5 -10l385 -158q27 -11 36 -19.5t9 -21.5q0 -33 -17.5 -66.5t-37.5 -33.5q-7 0 -15.5 1.5t-15.5 4.5l-404 113q-44 13 -58.5 25.5t-14.5 35.5z" />
<glyph unicode="&#xc9;" horiz-adv-x="1163" d="M127 649q0 211 20.5 412.5t55.5 343.5q22 95 41 125.5t49 30.5h741q27 0 37 -5.5t10 -17.5q0 -4 -1 -8.5t-3 -7.5l-110 -240q-9 -17 -16 -24t-15 -7q-4 0 -27 14q-128 74 -243 74q-127 0 -199 -72t-72 -200q0 -44 17 -71t45 -27q30 0 138 45t185 45q79 0 101 -7.5 t22 -27.5q0 -4 -0.5 -7t-3.5 -11l-88 -244l-6 -15q-7 -20 -17 -20q-3 0 -57 16.5t-102 16.5q-103 0 -168.5 -70t-65.5 -180q0 -127 65 -197.5t183 -70.5q97 0 202.5 63.5t106.5 63.5q9 0 17 -7.5t14 -21.5l127 -275q3 -7 4.5 -13t1.5 -11q0 -21 -19 -31t-61 -10h-819 q-44 0 -57 13.5t-19 75.5q-5 44 -9.5 205t-4.5 355zM389 1794q0 14 8.5 22t34.5 19l387 158q3 1 8 3q28 11 43 11q34 0 58 -41t24 -92q0 -23 -14.5 -35.5t-58.5 -25.5l-406 -113q-3 -1 -14 -3.5t-17 -2.5q-18 0 -35.5 34.5t-17.5 65.5z" />
<glyph unicode="&#xca;" horiz-adv-x="1163" d="M127 649q0 211 20.5 412.5t55.5 343.5q22 95 41 125.5t49 30.5h741q27 0 37 -5.5t10 -17.5q0 -4 -1 -8.5t-3 -7.5l-110 -240q-9 -17 -16 -24t-15 -7q-4 0 -27 14q-128 74 -243 74q-127 0 -199 -72t-72 -200q0 -44 17 -71t45 -27q30 0 138 45t185 45q79 0 101 -7.5 t22 -27.5q0 -4 -0.5 -7t-3.5 -11l-88 -244l-6 -15q-7 -20 -17 -20q-3 0 -57 16.5t-102 16.5q-103 0 -168.5 -70t-65.5 -180q0 -127 65 -197.5t183 -70.5q97 0 202.5 63.5t106.5 63.5q9 0 17 -7.5t14 -21.5l127 -275q3 -7 4.5 -13t1.5 -11q0 -21 -19 -31t-61 -10h-819 q-44 0 -57 13.5t-19 75.5q-5 44 -9.5 205t-4.5 355zM358 1718q0 3 6 12t15 20l198 230l9 12q18 23 59 23h65q42 0 64 -27q6 -7 10 -12l192 -227q9 -11 15 -20.5t6 -12.5q0 -8 -33.5 -14t-87.5 -6q-21 0 -35 6t-30 25l-134 157l-133 -157q-13 -18 -28 -24.5t-49 -6.5 q-47 0 -78 6.5t-31 15.5z" />
<glyph unicode="&#xcb;" horiz-adv-x="1163" d="M127 649q0 211 20.5 412.5t55.5 343.5q22 95 41 125.5t49 30.5h741q27 0 37 -5.5t10 -17.5q0 -4 -1 -8.5t-3 -7.5l-110 -240q-9 -17 -16 -24t-15 -7q-4 0 -27 14q-128 74 -243 74q-127 0 -199 -72t-72 -200q0 -44 17 -71t45 -27q30 0 138 45t185 45q79 0 101 -7.5 t22 -27.5q0 -4 -0.5 -7t-3.5 -11l-88 -244l-6 -15q-7 -20 -17 -20q-3 0 -57 16.5t-102 16.5q-103 0 -168.5 -70t-65.5 -180q0 -127 65 -197.5t183 -70.5q97 0 202.5 63.5t106.5 63.5q9 0 17 -7.5t14 -21.5l127 -275q3 -7 4.5 -13t1.5 -11q0 -21 -19 -31t-61 -10h-819 q-44 0 -57 13.5t-19 75.5q-5 44 -9.5 205t-4.5 355zM335 1866q0 51 34.5 86t84.5 35t84.5 -35.5t34.5 -85.5q0 -49 -35 -84t-84 -35t-84 34.5t-35 84.5zM778 1866q0 51 34 86t85 35q49 0 83.5 -35.5t34.5 -85.5q0 -49 -34.5 -84t-83.5 -35q-50 0 -84.5 34.5t-34.5 84.5z" />
<glyph unicode="&#xcc;" horiz-adv-x="672" d="M135 1874q0 52 23 92.5t57 40.5q9 0 23.5 -4t29.5 -10l385 -158q27 -11 36 -19.5t9 -21.5q0 -33 -17.5 -66.5t-37.5 -33.5q-7 0 -15.5 1.5t-15.5 4.5l-404 113q-44 13 -58.5 25.5t-14.5 35.5zM152 586q0 251 14.5 477.5t42.5 402.5q10 65 22.5 80t49.5 15h221 q24 0 35.5 -5t11.5 -16q0 -15 -17 -89q-75 -337 -75 -642q0 -342 70 -694q14 -71 14 -86t-12.5 -22t-41.5 -7h-219q-38 0 -52.5 8t-22.5 33q-21 62 -31 199.5t-10 345.5z" />
<glyph unicode="&#xcd;" horiz-adv-x="672" d="M129 1794q0 14 8.5 22t34.5 19l387 158q3 1 8 3q28 11 43 11q34 0 58 -41t24 -92q0 -23 -14.5 -35.5t-58.5 -25.5l-406 -113q-3 -1 -14 -3.5t-17 -2.5q-18 0 -35.5 34.5t-17.5 65.5zM152 586q0 251 14.5 477.5t42.5 402.5q10 65 22.5 80t49.5 15h221q24 0 35.5 -5 t11.5 -16q0 -15 -17 -89q-75 -337 -75 -642q0 -342 70 -694q14 -71 14 -86t-12.5 -22t-41.5 -7h-219q-38 0 -52.5 8t-22.5 33q-21 62 -31 199.5t-10 345.5z" />
<glyph unicode="&#xce;" horiz-adv-x="672" d="M98 1718q0 3 6 12t15 20l198 230l9 12q18 23 59 23h65q42 0 64 -27q6 -7 10 -12l192 -227q9 -11 15 -20.5t6 -12.5q0 -8 -33.5 -14t-87.5 -6q-21 0 -35 6t-30 25l-134 157l-133 -157q-13 -18 -28 -24.5t-49 -6.5q-47 0 -78 6.5t-31 15.5zM152 586q0 251 14.5 477.5 t42.5 402.5q10 65 22.5 80t49.5 15h221q24 0 35.5 -5t11.5 -16q0 -15 -17 -89q-75 -337 -75 -642q0 -342 70 -694q14 -71 14 -86t-12.5 -22t-41.5 -7h-219q-38 0 -52.5 8t-22.5 33q-21 62 -31 199.5t-10 345.5z" />
<glyph unicode="&#xcf;" horiz-adv-x="672" d="M75 1866q0 51 34.5 86t84.5 35t84.5 -35.5t34.5 -85.5q0 -49 -35 -84t-84 -35t-84 34.5t-35 84.5zM152 586q0 251 14.5 477.5t42.5 402.5q10 65 22.5 80t49.5 15h221q24 0 35.5 -5t11.5 -16q0 -15 -17 -89q-75 -337 -75 -642q0 -342 70 -694q14 -71 14 -86t-12.5 -22 t-41.5 -7h-219q-38 0 -52.5 8t-22.5 33q-21 62 -31 199.5t-10 345.5zM518 1866q0 51 34 86t85 35q49 0 83.5 -35.5t34.5 -85.5q0 -49 -34.5 -84t-83.5 -35q-50 0 -84.5 34.5t-34.5 84.5z" />
<glyph unicode="&#xd0;" horiz-adv-x="1327" d="M0 805v108q0 15 10 25t25 10h110q13 358 38.5 485.5t78.5 127.5h309q131 0 229 -55t191 -181q107 -145 169.5 -342t62.5 -393q0 -289 -130.5 -439.5t-379.5 -150.5h-449q-61 0 -89.5 171.5t-33.5 586.5h-112q-13 0 -21 12.5t-8 34.5zM428 758q7 -297 58 -413t169 -116 q121 0 199 118.5t78 307.5q0 121 -34.5 240.5t-98.5 224.5q-58 94 -124.5 149.5t-119.5 55.5q-64 0 -94.5 -81.5t-30.5 -252.5v-43h246q21 0 29 -7.5t8 -27.5v-108q0 -21 -8.5 -34t-20.5 -13h-256z" />
<glyph unicode="&#xd1;" horiz-adv-x="1470" d="M158 715q0 287 7 455.5t23 272.5q2 13 5 36q11 82 49 82h182q57 0 102 -42t144 -186q123 -176 234 -386t128 -210q11 0 18 27.5t7 71.5q0 348 -80 660q-10 40 -10 46q0 10 9.5 14.5t35.5 4.5h188q24 0 35.5 -14t17.5 -51q17 -107 29 -320.5t12 -446.5q0 -204 -9 -374.5 t-23 -262.5q-1 -4 -2 -11q-12 -81 -72 -81h-197q-19 0 -29.5 3.5t-13.5 11.5q-1 1 -35 112.5t-73 230.5q-98 290 -221.5 501.5t-172.5 211.5q-24 0 -35.5 -31t-11.5 -100q0 -437 84 -832q13 -59 13 -69q0 -24 -12 -31.5t-48 -7.5h-194q-35 0 -46 18t-18 75q-7 59 -13.5 236 t-6.5 386zM443 1757q0 96 59 158.5t154 62.5q78 0 195 -42t157 -42q67 0 93.5 49.5t31.5 49.5h39q9 0 13.5 -5.5t4.5 -17.5q0 -96 -59 -158.5t-154 -62.5q-78 0 -194 43t-156 43q-67 0 -94.5 -49t-32.5 -49h-37q-11 0 -15.5 5t-4.5 15z" />
<glyph unicode="&#xd2;" horiz-adv-x="1425" d="M84 532q0 205 57.5 410.5t161.5 370.5q85 133 191 203.5t221 70.5q114 0 213.5 -70t199.5 -221q98 -144 151.5 -336t53.5 -397q0 -316 -153.5 -453t-513.5 -137q-307 0 -444.5 133t-137.5 426zM393 653q0 -184 73 -261t249 -77q165 0 241 85t76 272q0 254 -99 441 t-218 187q-128 0 -225 -190.5t-97 -456.5zM512 1874q0 52 23 92.5t57 40.5q9 0 23.5 -4t29.5 -10l385 -158q27 -11 36 -19.5t9 -21.5q0 -33 -17.5 -66.5t-37.5 -33.5q-7 0 -15.5 1.5t-15.5 4.5l-404 113q-44 13 -58.5 25.5t-14.5 35.5z" />
<glyph unicode="&#xd3;" horiz-adv-x="1425" d="M84 532q0 205 57.5 410.5t161.5 370.5q85 133 191 203.5t221 70.5q114 0 213.5 -70t199.5 -221q98 -144 151.5 -336t53.5 -397q0 -316 -153.5 -453t-513.5 -137q-307 0 -444.5 133t-137.5 426zM393 653q0 -184 73 -261t249 -77q165 0 241 85t76 272q0 254 -99 441 t-218 187q-128 0 -225 -190.5t-97 -456.5zM506 1794q0 14 8.5 22t34.5 19l387 158q3 1 8 3q28 11 43 11q34 0 58 -41t24 -92q0 -23 -14.5 -35.5t-58.5 -25.5l-406 -113q-3 -1 -14 -3.5t-17 -2.5q-18 0 -35.5 34.5t-17.5 65.5z" />
<glyph unicode="&#xd4;" horiz-adv-x="1425" d="M84 532q0 205 57.5 410.5t161.5 370.5q85 133 191 203.5t221 70.5q114 0 213.5 -70t199.5 -221q98 -144 151.5 -336t53.5 -397q0 -316 -153.5 -453t-513.5 -137q-307 0 -444.5 133t-137.5 426zM393 653q0 -184 73 -261t249 -77q165 0 241 85t76 272q0 254 -99 441 t-218 187q-128 0 -225 -190.5t-97 -456.5zM475 1718q0 3 6 12t15 20l198 230l9 12q18 23 59 23h65q42 0 64 -27q6 -7 10 -12l192 -227q9 -11 15 -20.5t6 -12.5q0 -8 -33.5 -14t-87.5 -6q-21 0 -35 6t-30 25l-134 157l-133 -157q-13 -18 -28 -24.5t-49 -6.5q-47 0 -78 6.5 t-31 15.5z" />
<glyph unicode="&#xd5;" horiz-adv-x="1425" d="M84 532q0 205 57.5 410.5t161.5 370.5q85 133 191 203.5t221 70.5q114 0 213.5 -70t199.5 -221q98 -144 151.5 -336t53.5 -397q0 -316 -153.5 -453t-513.5 -137q-307 0 -444.5 133t-137.5 426zM393 653q0 -184 73 -261t249 -77q165 0 241 85t76 272q0 254 -99 441 t-218 187q-128 0 -225 -190.5t-97 -456.5zM420 1757q0 96 59 158.5t154 62.5q78 0 195 -42t157 -42q67 0 93.5 49.5t31.5 49.5h39q9 0 13.5 -5.5t4.5 -17.5q0 -96 -59 -158.5t-154 -62.5q-78 0 -194 43t-156 43q-67 0 -94.5 -49t-32.5 -49h-37q-11 0 -15.5 5t-4.5 15z" />
<glyph unicode="&#xd6;" horiz-adv-x="1425" d="M84 532q0 205 57.5 410.5t161.5 370.5q85 133 191 203.5t221 70.5q114 0 213.5 -70t199.5 -221q98 -144 151.5 -336t53.5 -397q0 -316 -153.5 -453t-513.5 -137q-307 0 -444.5 133t-137.5 426zM393 653q0 -184 73 -261t249 -77q165 0 241 85t76 272q0 254 -99 441 t-218 187q-128 0 -225 -190.5t-97 -456.5zM452 1866q0 51 34.5 86t84.5 35t84.5 -35.5t34.5 -85.5q0 -49 -35 -84t-84 -35t-84 34.5t-35 84.5zM895 1866q0 51 34 86t85 35q49 0 83.5 -35.5t34.5 -85.5q0 -49 -34.5 -84t-83.5 -35q-50 0 -84.5 34.5t-34.5 84.5z" />
<glyph unicode="&#xd7;" horiz-adv-x="1706" d="M287 152l458 458l-458 461l116 117l459 -459l461 459l117 -117l-459 -461l459 -458l-117 -119l-461 461l-459 -461z" />
<glyph unicode="&#xd8;" horiz-adv-x="1425" d="M66 -90l149 213q-74 91 -106.5 194.5t-32.5 251.5q0 198 56.5 393.5t160.5 358.5q88 136 195 208.5t221 72.5q105 0 193 -55.5t177 -178.5l140 201l108 -72l-168 -244q84 -156 126 -328t42 -356q0 -311 -152.5 -455.5t-482.5 -144.5q-111 0 -203.5 18t-169.5 54 l-149 -211zM387 662q0 -77 11 -130.5t34 -93.5l488 699q-52 94 -102.5 136t-110.5 42q-127 0 -223.5 -192.5t-96.5 -460.5zM532 352q45 -16 84.5 -23t79.5 -7q174 0 253 84t79 270q0 90 -12 168.5t-37 148.5z" />
<glyph unicode="&#xd9;" horiz-adv-x="1352" d="M98 815q0 203 16.5 385.5t41.5 282.5q14 54 27 66t48 12h232q19 0 26 -5t7 -20q0 -19 -19 -90q-71 -275 -71 -537q0 -288 70 -429.5t214 -141.5q136 0 197 119t61 385q0 325 -73 626q-13 54 -13 66q0 14 9 20.5t30 6.5h191q36 0 53 -15t29 -60q23 -99 37 -268t14 -370 q0 -438 -141.5 -656.5t-424.5 -218.5q-268 0 -414.5 219t-146.5 623zM404 1874q0 52 23 92.5t57 40.5q9 0 23.5 -4t29.5 -10l385 -158q27 -11 36 -19.5t9 -21.5q0 -33 -17.5 -66.5t-37.5 -33.5q-7 0 -15.5 1.5t-15.5 4.5l-404 113q-44 13 -58.5 25.5t-14.5 35.5z" />
<glyph unicode="&#xda;" horiz-adv-x="1352" d="M98 815q0 203 16.5 385.5t41.5 282.5q14 54 27 66t48 12h232q19 0 26 -5t7 -20q0 -19 -19 -90q-71 -275 -71 -537q0 -288 70 -429.5t214 -141.5q136 0 197 119t61 385q0 325 -73 626q-13 54 -13 66q0 14 9 20.5t30 6.5h191q36 0 53 -15t29 -60q23 -99 37 -268t14 -370 q0 -438 -141.5 -656.5t-424.5 -218.5q-268 0 -414.5 219t-146.5 623zM398 1794q0 14 8.5 22t34.5 19l387 158q3 1 8 3q28 11 43 11q34 0 58 -41t24 -92q0 -23 -14.5 -35.5t-58.5 -25.5l-406 -113q-3 -1 -14 -3.5t-17 -2.5q-18 0 -35.5 34.5t-17.5 65.5z" />
<glyph unicode="&#xdb;" horiz-adv-x="1352" d="M98 815q0 203 16.5 385.5t41.5 282.5q14 54 27 66t48 12h232q19 0 26 -5t7 -20q0 -19 -19 -90q-71 -275 -71 -537q0 -288 70 -429.5t214 -141.5q136 0 197 119t61 385q0 325 -73 626q-13 54 -13 66q0 14 9 20.5t30 6.5h191q36 0 53 -15t29 -60q23 -99 37 -268t14 -370 q0 -438 -141.5 -656.5t-424.5 -218.5q-268 0 -414.5 219t-146.5 623zM367 1718q0 3 6 12t15 20l198 230l9 12q18 23 59 23h65q42 0 64 -27q6 -7 10 -12l192 -227q9 -11 15 -20.5t6 -12.5q0 -8 -33.5 -14t-87.5 -6q-21 0 -35 6t-30 25l-134 157l-133 -157q-13 -18 -28 -24.5 t-49 -6.5q-47 0 -78 6.5t-31 15.5z" />
<glyph unicode="&#xdc;" horiz-adv-x="1352" d="M98 815q0 203 16.5 385.5t41.5 282.5q14 54 27 66t48 12h232q19 0 26 -5t7 -20q0 -19 -19 -90q-71 -275 -71 -537q0 -288 70 -429.5t214 -141.5q136 0 197 119t61 385q0 325 -73 626q-13 54 -13 66q0 14 9 20.5t30 6.5h191q36 0 53 -15t29 -60q23 -99 37 -268t14 -370 q0 -438 -141.5 -656.5t-424.5 -218.5q-268 0 -414.5 219t-146.5 623zM344 1866q0 51 34.5 86t84.5 35t84.5 -35.5t34.5 -85.5q0 -49 -35 -84t-84 -35t-84 34.5t-35 84.5zM787 1866q0 51 34 86t85 35q49 0 83.5 -35.5t34.5 -85.5q0 -49 -34.5 -84t-83.5 -35q-50 0 -84.5 34.5 t-34.5 84.5z" />
<glyph unicode="&#xdd;" horiz-adv-x="1196" d="M33 1458q0 57 11 80t38 23h250q22 0 31.5 -10t9.5 -35q0 -12 -3 -53t-3 -70q0 -198 87.5 -366.5t155.5 -168.5q21 0 63.5 51t88.5 133q52 97 75 177.5t23 160.5q0 48 -4 97l-4 49q0 19 8.5 27t28.5 8h211q31 0 44 -30.5t13 -109.5q0 -133 -48.5 -257.5t-182.5 -305.5 q-167 -227 -228 -388t-61 -341q0 -29 3 -60.5t3 -35.5q0 -19 -12 -26t-43 -7h-217q-34 0 -48 23.5t-14 85.5q0 124 66.5 273t66.5 165q0 33 -97.5 140.5t-162.5 215.5q-74 126 -111.5 265t-37.5 290zM391 1794q0 14 8.5 22t34.5 19l387 158q3 1 8 3q28 11 43 11q34 0 58 -41 t24 -92q0 -23 -14.5 -35.5t-58.5 -25.5l-406 -113q-3 -1 -14 -3.5t-17 -2.5q-18 0 -35.5 34.5t-17.5 65.5z" />
<glyph unicode="&#xde;" horiz-adv-x="1241" d="M162 797q0 236 12 422t33 288q6 32 17.5 43t39.5 11h232q2 0 5 -1t5 -1q18 -1 27.5 -5.5t9.5 -13.5q0 -25 -20.5 -102.5t-20.5 -116.5q0 -13 7 -19t21 -6q6 0 32 11q137 57 284 57q170 0 265 -86.5t95 -241.5q0 -140 -73 -254t-240 -233q-83 -60 -218 -133 q-165 -91 -165 -158q0 -57 27.5 -140t27.5 -98q0 -11 -10.5 -15.5t-38.5 -4.5h-266q-35 0 -48 13t-16 51q-11 147 -17.5 337.5t-6.5 395.5zM461 702q0 -51 10 -78.5t29 -27.5q27 0 94.5 36.5t144.5 96.5q95 72 131.5 124.5t36.5 111.5q0 81 -57 123t-166 42 q-117 0 -165.5 -61t-53.5 -221l-4 -131v-15z" />
<glyph unicode="&#xdf;" horiz-adv-x="1087" d="M100 815q0 301 15 432t51 191q46 77 130 116t204 39q186 0 298.5 -92.5t112.5 -243.5q0 -92 -52.5 -160.5t-137.5 -86.5q123 -24 199.5 -165.5t76.5 -348.5q0 -228 -89.5 -374.5t-225.5 -146.5q-87 0 -151 74.5t-64 149.5q0 11 3.5 18.5t8.5 7.5q3 0 36 -12t60 -12 q78 0 127.5 76.5t49.5 197.5q0 168 -62 292t-133 124q-34 0 -72 -24.5t-41 -24.5q-5 0 -10 8t-8 23l-23 125q-2 10 -4 18t-2 10q0 15 66 29t102 26q62 22 92.5 59.5t30.5 92.5q0 64 -49 103.5t-129 39.5q-93 0 -129.5 -84.5t-36.5 -343.5q0 -367 66 -780q16 -100 16 -123 q-1 -30 -9 -37.5t-40 -7.5h-197q-55 0 -61 91q-1 23 -2 38q-7 101 -12 287t-5 399z" />
<glyph unicode="&#xe0;" horiz-adv-x="1014" d="M70 326q0 124 71.5 223t206.5 162q71 33 175 56q98 23 98 71q0 64 -54.5 112.5t-132.5 48.5q-54 0 -97.5 -22.5t-68.5 -65.5q-12 -20 -18.5 -50.5t-24.5 -31.5q-51 0 -90 45t-39 111q0 104 92 168t244 64q78 0 149 -20t130 -58q97 -65 137.5 -160.5t40.5 -288.5 q0 -364 26 -615q3 -21 3 -24q0 -41 -17.5 -55t-71.5 -14q-16 0 -62 3t-75 3q-45 0 -121.5 -7.5t-109.5 -7.5q-188 0 -289.5 91.5t-101.5 261.5zM219 1493q0 52 23 92.5t57 40.5q9 0 23.5 -4t29.5 -10l385 -158q27 -11 36 -19.5t9 -21.5q0 -33 -17.5 -66.5t-37.5 -33.5 q-7 0 -15.5 1.5t-15.5 4.5l-404 113q-44 13 -58.5 25.5t-14.5 35.5zM334 371q0 -72 52 -119t134 -47q62 0 88.5 16.5t26.5 54.5v230q0 36 -19.5 55t-58.5 19q-86 0 -154.5 -61t-68.5 -148z" />
<glyph unicode="&#xe1;" horiz-adv-x="1014" d="M70 326q0 124 71.5 223t206.5 162q71 33 175 56q98 23 98 71q0 64 -54.5 112.5t-132.5 48.5q-54 0 -97.5 -22.5t-68.5 -65.5q-12 -20 -18.5 -50.5t-24.5 -31.5q-51 0 -90 45t-39 111q0 104 92 168t244 64q78 0 149 -20t130 -58q97 -65 137.5 -160.5t40.5 -288.5 q0 -364 26 -615q3 -21 3 -24q0 -41 -17.5 -55t-71.5 -14q-16 0 -62 3t-75 3q-45 0 -121.5 -7.5t-109.5 -7.5q-188 0 -289.5 91.5t-101.5 261.5zM213 1413q0 14 8.5 22t34.5 19l387 158q3 1 8 3q28 11 43 11q34 0 58 -41t24 -92q0 -23 -14.5 -35.5t-58.5 -25.5l-406 -113 q-3 -1 -14 -3.5t-17 -2.5q-18 0 -35.5 34.5t-17.5 65.5zM334 371q0 -72 52 -119t134 -47q62 0 88.5 16.5t26.5 54.5v230q0 36 -19.5 55t-58.5 19q-86 0 -154.5 -61t-68.5 -148z" />
<glyph unicode="&#xe2;" horiz-adv-x="1014" d="M70 326q0 124 71.5 223t206.5 162q71 33 175 56q98 23 98 71q0 64 -54.5 112.5t-132.5 48.5q-54 0 -97.5 -22.5t-68.5 -65.5q-12 -20 -18.5 -50.5t-24.5 -31.5q-51 0 -90 45t-39 111q0 104 92 168t244 64q78 0 149 -20t130 -58q97 -65 137.5 -160.5t40.5 -288.5 q0 -364 26 -615q3 -21 3 -24q0 -41 -17.5 -55t-71.5 -14q-16 0 -62 3t-75 3q-45 0 -121.5 -7.5t-109.5 -7.5q-188 0 -289.5 91.5t-101.5 261.5zM182 1337q0 3 6 12t15 20l198 230l9 12q18 23 59 23h65q42 0 64 -27q6 -7 10 -12l192 -227q9 -11 15 -20.5t6 -12.5 q0 -8 -33.5 -14t-87.5 -6q-21 0 -35 6t-30 25l-134 157l-133 -157q-13 -18 -28 -24.5t-49 -6.5q-47 0 -78 6.5t-31 15.5zM334 371q0 -72 52 -119t134 -47q62 0 88.5 16.5t26.5 54.5v230q0 36 -19.5 55t-58.5 19q-86 0 -154.5 -61t-68.5 -148z" />
<glyph unicode="&#xe3;" horiz-adv-x="1014" d="M70 326q0 124 71.5 223t206.5 162q71 33 175 56q98 23 98 71q0 64 -54.5 112.5t-132.5 48.5q-54 0 -97.5 -22.5t-68.5 -65.5q-12 -20 -18.5 -50.5t-24.5 -31.5q-51 0 -90 45t-39 111q0 104 92 168t244 64q78 0 149 -20t130 -58q97 -65 137.5 -160.5t40.5 -288.5 q0 -364 26 -615q3 -21 3 -24q0 -41 -17.5 -55t-71.5 -14q-16 0 -62 3t-75 3q-45 0 -121.5 -7.5t-109.5 -7.5q-188 0 -289.5 91.5t-101.5 261.5zM127 1376q0 96 59 158.5t154 62.5q78 0 195 -42t157 -42q67 0 93.5 49.5t31.5 49.5h39q9 0 13.5 -5.5t4.5 -17.5 q0 -96 -59 -158.5t-154 -62.5q-78 0 -194 43t-156 43q-67 0 -94.5 -49t-32.5 -49h-37q-11 0 -15.5 5t-4.5 15zM334 371q0 -72 52 -119t134 -47q62 0 88.5 16.5t26.5 54.5v230q0 36 -19.5 55t-58.5 19q-86 0 -154.5 -61t-68.5 -148z" />
<glyph unicode="&#xe4;" horiz-adv-x="1014" d="M70 326q0 124 71.5 223t206.5 162q71 33 175 56q98 23 98 71q0 64 -54.5 112.5t-132.5 48.5q-54 0 -97.5 -22.5t-68.5 -65.5q-12 -20 -18.5 -50.5t-24.5 -31.5q-51 0 -90 45t-39 111q0 104 92 168t244 64q78 0 149 -20t130 -58q97 -65 137.5 -160.5t40.5 -288.5 q0 -364 26 -615q3 -21 3 -24q0 -41 -17.5 -55t-71.5 -14q-16 0 -62 3t-75 3q-45 0 -121.5 -7.5t-109.5 -7.5q-188 0 -289.5 91.5t-101.5 261.5zM159 1485q0 51 34.5 86t84.5 35t84.5 -35.5t34.5 -85.5q0 -49 -35 -84t-84 -35t-84 34.5t-35 84.5zM334 371q0 -72 52 -119 t134 -47q62 0 88.5 16.5t26.5 54.5v230q0 36 -19.5 55t-58.5 19q-86 0 -154.5 -61t-68.5 -148zM602 1485q0 51 34 86t85 35q49 0 83.5 -35.5t34.5 -85.5q0 -49 -34.5 -84t-83.5 -35q-50 0 -84.5 34.5t-34.5 84.5z" />
<glyph unicode="&#xe5;" horiz-adv-x="1014" d="M70 326q0 124 71.5 223t206.5 162q71 33 175 56q98 23 98 71q0 64 -54.5 112.5t-132.5 48.5q-54 0 -97.5 -22.5t-68.5 -65.5q-12 -20 -18.5 -50.5t-24.5 -31.5q-51 0 -90 45t-39 111q0 104 92 168t244 64q78 0 149 -20t130 -58q97 -65 137.5 -160.5t40.5 -288.5 q0 -364 26 -615q3 -21 3 -24q0 -41 -17.5 -55t-71.5 -14q-16 0 -62 3t-75 3q-45 0 -121.5 -7.5t-109.5 -7.5q-188 0 -289.5 91.5t-101.5 261.5zM317 1475q0 84 61 144t146 60t145 -59.5t60 -144.5q0 -86 -60 -145.5t-145 -59.5q-86 0 -146.5 59.5t-60.5 145.5zM334 371 q0 -72 52 -119t134 -47q62 0 88.5 16.5t26.5 54.5v230q0 36 -19.5 55t-58.5 19q-86 0 -154.5 -61t-68.5 -148zM414 1475q0 -46 30.5 -77.5t75.5 -31.5t77 31.5t32 77.5q0 44 -31.5 75t-77.5 31q-44 0 -75 -31t-31 -75z" />
<glyph unicode="&#xe6;" horiz-adv-x="1577" d="M55 330q0 124 71.5 222t207.5 159q70 31 173 55q101 24 101 72q0 65 -54.5 112t-133.5 47q-55 0 -97 -22t-67 -64q-13 -20 -20 -51t-23 -31q-51 0 -91 44.5t-40 109.5q0 102 92.5 169t239.5 67q108 0 197 -36.5t169 -113.5q77 76 161 113t179 37q163 0 266 -87.5 t103 -226.5q0 -115 -62 -191.5t-200 -131.5q-43 -17 -119 -43q-197 -67 -197 -150q0 -61 66 -101t168 -40q82 0 149.5 26t102.5 70q44 56 60 119q4 16 7 16q19 0 30 -36.5t11 -100.5q0 -163 -112.5 -262.5t-296.5 -99.5q-101 0 -179.5 31.5t-134.5 94.5q-51 -70 -130 -101.5 t-208 -31.5q-181 0 -285 95.5t-104 261.5zM319 375q0 -71 53.5 -118.5t135.5 -47.5q60 0 86.5 17t26.5 57v229q0 37 -19 55.5t-57 18.5q-86 0 -156 -61.5t-70 -149.5zM872 741q0 -21 9.5 -34t23.5 -13q5 0 16 2.5t24 6.5l237 81q40 14 60 37.5t20 57.5q0 56 -43 91.5 t-111 35.5q-95 0 -165.5 -82t-70.5 -183z" />
<glyph unicode="&#xe7;" horiz-adv-x="940" d="M61 545q0 299 146.5 485.5t374.5 186.5q121 0 198.5 -61t77.5 -155q0 -55 -37.5 -100t-75.5 -45q-18 0 -34 33t-29 49q-23 28 -56.5 43.5t-68.5 15.5q-103 0 -174.5 -113.5t-71.5 -285.5q0 -156 71 -245t196 -89q60 0 108 19t84 57q24 25 39.5 57.5t19.5 32.5 q18 0 28.5 -31.5t10.5 -85.5q0 -161 -96.5 -250.5t-269.5 -89.5q-199 0 -320 155.5t-121 416.5zM311 -319q0 15 11 24.5t26 9.5q4 0 76.5 -31.5t140.5 -31.5q47 0 74 19.5t27 54.5q0 33 -30 49t-91 16h-41q-16 0 -20.5 5.5t-4.5 23.5q1 2 2.5 9t2.5 15l18 164h76l-13 -143 q14 2 29 3t47 1q80 0 132.5 -40t52.5 -101q0 -69 -64 -109.5t-174 -40.5q-106 0 -191.5 32t-85.5 71z" />
<glyph unicode="&#xe8;" horiz-adv-x="1012" d="M70 575q0 295 133.5 468.5t359.5 173.5q163 0 266 -88t103 -226q0 -114 -62.5 -192t-199.5 -133q-42 -17 -117 -43q-199 -70 -199 -152q0 -59 64 -98t164 -39q66 0 123.5 19t99.5 54q72 62 93 140q4 14 7 14q21 0 32 -34.5t11 -98.5q0 -165 -112.5 -266t-298.5 -101 q-220 0 -343.5 159.5t-123.5 442.5zM287 1493q0 52 23 92.5t57 40.5q9 0 23.5 -4t29.5 -10l385 -158q27 -11 36 -19.5t9 -21.5q0 -33 -17.5 -66.5t-37.5 -33.5q-7 0 -15.5 1.5t-15.5 4.5l-404 113q-44 13 -58.5 25.5t-14.5 35.5zM313 739q0 -20 10 -33.5t23 -13.5q9 0 18 2 t22 7l237 79q40 14 59.5 39t19.5 62q0 53 -42.5 86.5t-110.5 33.5q-96 0 -166 -80.5t-70 -181.5z" />
<glyph unicode="&#xe9;" horiz-adv-x="1012" d="M70 575q0 295 133.5 468.5t359.5 173.5q163 0 266 -88t103 -226q0 -114 -62.5 -192t-199.5 -133q-42 -17 -117 -43q-199 -70 -199 -152q0 -59 64 -98t164 -39q66 0 123.5 19t99.5 54q72 62 93 140q4 14 7 14q21 0 32 -34.5t11 -98.5q0 -165 -112.5 -266t-298.5 -101 q-220 0 -343.5 159.5t-123.5 442.5zM281 1413q0 14 8.5 22t34.5 19l387 158q3 1 8 3q28 11 43 11q34 0 58 -41t24 -92q0 -23 -14.5 -35.5t-58.5 -25.5l-406 -113q-3 -1 -14 -3.5t-17 -2.5q-18 0 -35.5 34.5t-17.5 65.5zM313 739q0 -20 10 -33.5t23 -13.5q9 0 18 2t22 7 l237 79q40 14 59.5 39t19.5 62q0 53 -42.5 86.5t-110.5 33.5q-96 0 -166 -80.5t-70 -181.5z" />
<glyph unicode="&#xea;" horiz-adv-x="1012" d="M70 575q0 295 133.5 468.5t359.5 173.5q163 0 266 -88t103 -226q0 -114 -62.5 -192t-199.5 -133q-42 -17 -117 -43q-199 -70 -199 -152q0 -59 64 -98t164 -39q66 0 123.5 19t99.5 54q72 62 93 140q4 14 7 14q21 0 32 -34.5t11 -98.5q0 -165 -112.5 -266t-298.5 -101 q-220 0 -343.5 159.5t-123.5 442.5zM250 1337q0 3 6 12t15 20l198 230l9 12q18 23 59 23h65q42 0 64 -27q6 -7 10 -12l192 -227q9 -11 15 -20.5t6 -12.5q0 -8 -33.5 -14t-87.5 -6q-21 0 -35 6t-30 25l-134 157l-133 -157q-13 -18 -28 -24.5t-49 -6.5q-47 0 -78 6.5t-31 15.5 zM313 739q0 -20 10 -33.5t23 -13.5q9 0 18 2t22 7l237 79q40 14 59.5 39t19.5 62q0 53 -42.5 86.5t-110.5 33.5q-96 0 -166 -80.5t-70 -181.5z" />
<glyph unicode="&#xeb;" horiz-adv-x="1012" d="M70 575q0 295 133.5 468.5t359.5 173.5q163 0 266 -88t103 -226q0 -114 -62.5 -192t-199.5 -133q-42 -17 -117 -43q-199 -70 -199 -152q0 -59 64 -98t164 -39q66 0 123.5 19t99.5 54q72 62 93 140q4 14 7 14q21 0 32 -34.5t11 -98.5q0 -165 -112.5 -266t-298.5 -101 q-220 0 -343.5 159.5t-123.5 442.5zM227 1485q0 51 34.5 86t84.5 35t84.5 -35.5t34.5 -85.5q0 -49 -35 -84t-84 -35t-84 34.5t-35 84.5zM313 739q0 -20 10 -33.5t23 -13.5q9 0 18 2t22 7l237 79q40 14 59.5 39t19.5 62q0 53 -42.5 86.5t-110.5 33.5q-96 0 -166 -80.5 t-70 -181.5zM670 1485q0 51 34 86t85 35q49 0 83.5 -35.5t34.5 -85.5q0 -49 -34.5 -84t-83.5 -35q-50 0 -84.5 34.5t-34.5 84.5z" />
<glyph unicode="&#xec;" horiz-adv-x="526" d="M2 1493q0 52 23 92.5t57 40.5q9 0 23.5 -4t29.5 -10l385 -158q27 -11 36 -19.5t9 -21.5q0 -33 -17.5 -66.5t-37.5 -33.5q-7 0 -15.5 1.5t-15.5 4.5l-404 113q-44 13 -58.5 25.5t-14.5 35.5zM115 283v235q0 174 6 329t16 265q1 4 1 10q5 63 122 64h29q71 0 86.5 -7 t15.5 -32q0 -13 -5 -62q-17 -185 -17 -348q0 -296 52 -616q11 -69 11 -84q0 -23 -19.5 -30t-119.5 -7h-109q-42 0 -55.5 49t-13.5 234z" />
<glyph unicode="&#xed;" horiz-adv-x="526" d="M-4 1413q0 14 8.5 22t34.5 19l387 158q3 1 8 3q28 11 43 11q34 0 58 -41t24 -92q0 -23 -14.5 -35.5t-58.5 -25.5l-406 -113q-3 -1 -14 -3.5t-17 -2.5q-18 0 -35.5 34.5t-17.5 65.5zM115 283v235q0 174 6 329t16 265q1 4 1 10q5 63 122 64h29q71 0 86.5 -7t15.5 -32 q0 -13 -5 -62q-17 -185 -17 -348q0 -296 52 -616q11 -69 11 -84q0 -23 -19.5 -30t-119.5 -7h-109q-42 0 -55.5 49t-13.5 234z" />
<glyph unicode="&#xee;" horiz-adv-x="526" d="M-35 1337q0 3 6 12t15 20l198 230l9 12q18 23 59 23h65q42 0 64 -27q6 -7 10 -12l192 -227q9 -11 15 -20.5t6 -12.5q0 -8 -33.5 -14t-87.5 -6q-21 0 -35 6t-30 25l-134 157l-133 -157q-13 -18 -28 -24.5t-49 -6.5q-47 0 -78 6.5t-31 15.5zM115 283v235q0 174 6 329 t16 265q1 4 1 10q5 63 122 64h29q71 0 86.5 -7t15.5 -32q0 -13 -5 -62q-17 -185 -17 -348q0 -296 52 -616q11 -69 11 -84q0 -23 -19.5 -30t-119.5 -7h-109q-42 0 -55.5 49t-13.5 234z" />
<glyph unicode="&#xef;" horiz-adv-x="526" d="M-58 1485q0 51 34.5 86t84.5 35t84.5 -35.5t34.5 -85.5q0 -49 -35 -84t-84 -35t-84 34.5t-35 84.5zM115 283v235q0 174 6 329t16 265q1 4 1 10q5 63 122 64h29q71 0 86.5 -7t15.5 -32q0 -13 -5 -62q-17 -185 -17 -348q0 -296 52 -616q11 -69 11 -84q0 -23 -19.5 -30 t-119.5 -7h-109q-42 0 -55.5 49t-13.5 234zM385 1485q0 51 34 86t85 35q49 0 83.5 -35.5t34.5 -85.5q0 -49 -34.5 -84t-83.5 -35q-50 0 -84.5 34.5t-34.5 84.5z" />
<glyph unicode="&#xf0;" horiz-adv-x="1085" d="M72 528q0 255 128.5 408.5t344.5 153.5q19 0 47 -5.5t37 -5.5q3 1 4.5 3t1.5 5q0 25 -44.5 89.5t-55.5 64.5q-23 0 -83.5 -56.5t-76.5 -56.5q-6 1 -10.5 3.5t-8.5 7.5l-65 80q-3 2 -4.5 6.5t-1.5 9.5q0 7 6.5 13.5t23.5 17.5q48 26 80.5 52.5t32.5 35.5q0 18 -63.5 51.5 t-63.5 44.5q0 2 2 6.5t4 7.5l62 95q6 9 11 12.5t13 3.5q37 0 113.5 -49t85.5 -49q22 0 79.5 55t69.5 55q10 0 22 -15l1 -1l65 -84q1 -1 2 -3q4 -8 5 -14q0 -6 -63.5 -46t-63.5 -56q0 -5 42.5 -64.5t75.5 -119.5q81 -148 125.5 -309t44.5 -304q0 -272 -127 -435t-333 -163 q-211 0 -338 152t-127 403zM313 569q0 -143 60 -229t159 -86q103 0 163.5 92t60.5 250q0 131 -60.5 213t-154.5 82q-103 0 -165.5 -88t-62.5 -234z" />
<glyph unicode="&#xf1;" horiz-adv-x="1090" d="M123 494q0 215 6.5 382t19.5 272q10 76 34 91.5t130 15.5q92 0 111.5 -7.5t19.5 -28.5q0 -13 -9 -36t-9 -34q0 -20 8.5 -29.5t26.5 -9.5t89 37t134 37q152 0 215.5 -135t63.5 -492q0 -144 -7.5 -252t-23.5 -192q-2 -9 -4 -23q-16 -90 -103 -90q-34 0 -74 1t-46 1h-43 q-23 0 -30 6.5t-7 24.5q0 5 9 38q83 296 83 636q0 138 -35 196t-117 58q-92 0 -142 -98.5t-50 -280.5q0 -276 51 -516q6 -29 6 -33q0 -20 -8 -26.5t-39 -6.5h-12h-103h-32q-60 0 -75.5 10t-23.5 41q-8 29 -11 122t-3 321zM191 1376q0 96 59 158.5t154 62.5q78 0 195 -42 t157 -42q67 0 93.5 49.5t31.5 49.5h39q9 0 13.5 -5.5t4.5 -17.5q0 -96 -59 -158.5t-154 -62.5q-78 0 -194 43t-156 43q-67 0 -94.5 -49t-32.5 -49h-37q-11 0 -15.5 5t-4.5 15z" />
<glyph unicode="&#xf2;" horiz-adv-x="1085" d="M72 590q0 284 129 454t344 170q202 0 327 -163.5t125 -434.5q0 -288 -130.5 -465.5t-340.5 -177.5q-203 0 -328.5 170t-125.5 447zM281 1493q0 52 23 92.5t57 40.5q9 0 23.5 -4t29.5 -10l385 -158q27 -11 36 -19.5t9 -21.5q0 -33 -17.5 -66.5t-37.5 -33.5q-7 0 -15.5 1.5 t-15.5 4.5l-404 113q-44 13 -58.5 25.5t-14.5 35.5zM313 637q0 -162 60.5 -257t163.5 -95q97 0 159 101.5t62 264.5q0 156 -60 249t-157 93q-104 0 -166 -96.5t-62 -259.5z" />
<glyph unicode="&#xf3;" horiz-adv-x="1085" d="M72 590q0 284 129 454t344 170q202 0 327 -163.5t125 -434.5q0 -288 -130.5 -465.5t-340.5 -177.5q-203 0 -328.5 170t-125.5 447zM275 1413q0 14 8.5 22t34.5 19l387 158q3 1 8 3q28 11 43 11q34 0 58 -41t24 -92q0 -23 -14.5 -35.5t-58.5 -25.5l-406 -113 q-3 -1 -14 -3.5t-17 -2.5q-18 0 -35.5 34.5t-17.5 65.5zM313 637q0 -162 60.5 -257t163.5 -95q97 0 159 101.5t62 264.5q0 156 -60 249t-157 93q-104 0 -166 -96.5t-62 -259.5z" />
<glyph unicode="&#xf4;" horiz-adv-x="1085" d="M72 590q0 284 129 454t344 170q202 0 327 -163.5t125 -434.5q0 -288 -130.5 -465.5t-340.5 -177.5q-203 0 -328.5 170t-125.5 447zM244 1337q0 3 6 12t15 20l198 230l9 12q18 23 59 23h65q42 0 64 -27q6 -7 10 -12l192 -227q9 -11 15 -20.5t6 -12.5q0 -8 -33.5 -14 t-87.5 -6q-21 0 -35 6t-30 25l-134 157l-133 -157q-13 -18 -28 -24.5t-49 -6.5q-47 0 -78 6.5t-31 15.5zM313 637q0 -162 60.5 -257t163.5 -95q97 0 159 101.5t62 264.5q0 156 -60 249t-157 93q-104 0 -166 -96.5t-62 -259.5z" />
<glyph unicode="&#xf5;" horiz-adv-x="1085" d="M72 590q0 284 129 454t344 170q202 0 327 -163.5t125 -434.5q0 -288 -130.5 -465.5t-340.5 -177.5q-203 0 -328.5 170t-125.5 447zM189 1376q0 96 59 158.5t154 62.5q78 0 195 -42t157 -42q67 0 93.5 49.5t31.5 49.5h39q9 0 13.5 -5.5t4.5 -17.5q0 -96 -59 -158.5 t-154 -62.5q-78 0 -194 43t-156 43q-67 0 -94.5 -49t-32.5 -49h-37q-11 0 -15.5 5t-4.5 15zM313 637q0 -162 60.5 -257t163.5 -95q97 0 159 101.5t62 264.5q0 156 -60 249t-157 93q-104 0 -166 -96.5t-62 -259.5z" />
<glyph unicode="&#xf6;" horiz-adv-x="1085" d="M72 590q0 284 129 454t344 170q202 0 327 -163.5t125 -434.5q0 -288 -130.5 -465.5t-340.5 -177.5q-203 0 -328.5 170t-125.5 447zM221 1485q0 51 34.5 86t84.5 35t84.5 -35.5t34.5 -85.5q0 -49 -35 -84t-84 -35t-84 34.5t-35 84.5zM313 637q0 -162 60.5 -257t163.5 -95 q97 0 159 101.5t62 264.5q0 156 -60 249t-157 93q-104 0 -166 -96.5t-62 -259.5zM664 1485q0 51 34 86t85 35q49 0 83.5 -35.5t34.5 -85.5q0 -49 -34.5 -84t-83.5 -35q-50 0 -84.5 34.5t-34.5 84.5z" />
<glyph unicode="&#xf7;" horiz-adv-x="1706" d="M254 528v166h1198v-166h-1198zM717 229q0 57 40.5 97.5t96.5 40.5q57 0 97 -40.5t40 -97.5q0 -56 -39.5 -95.5t-97.5 -39.5t-97.5 39t-39.5 96zM717 989q0 57 40.5 98t96.5 41q57 0 97 -41t40 -98q0 -56 -39.5 -95.5t-97.5 -39.5t-97.5 39t-39.5 96z" />
<glyph unicode="&#xf8;" horiz-adv-x="1085" d="M10 -59l162 237q-51 82 -76.5 186.5t-25.5 229.5q0 279 128.5 451t336.5 172q80 0 147 -24t125 -73l131 193l90 -60l-145 -217q55 -75 84.5 -181.5t29.5 -229.5q0 -293 -131 -473.5t-340 -180.5q-86 0 -160.5 30.5t-123.5 86.5l-144 -213zM309 621q0 -49 9 -96t26 -89 l332 488q-34 35 -68.5 52t-72.5 17q-102 0 -164 -101t-62 -271zM408 336q27 -27 54.5 -39t63.5 -12q106 0 169 98.5t63 265.5q0 42 -6 83t-19 83z" />
<glyph unicode="&#xf9;" horiz-adv-x="1092" d="M121 618q0 137 7 252.5t19 181.5q2 10 5 27q17 111 71 111h195q25 0 32 -6t7 -27q0 -6 -10 -44q-80 -310 -80 -648q0 -140 34 -201t111 -61q98 0 148.5 99t50.5 292q0 283 -53 530q-7 29 -7 33q0 19 8.5 26t36.5 7h183q50 0 66 -51t16 -256v-150q0 -253 -4.5 -384 t-14.5 -220l-1 -5q-16 -142 -173 -142q-56 0 -85.5 5t-35.5 15q-3 5 -6 16q-9 29 -35 29q-3 0 -70.5 -37t-138.5 -37q-150 0 -213 139.5t-63 505.5zM285 1493q0 52 23 92.5t57 40.5q9 0 23.5 -4t29.5 -10l385 -158q27 -11 36 -19.5t9 -21.5q0 -33 -17.5 -66.5t-37.5 -33.5 q-7 0 -15.5 1.5t-15.5 4.5l-404 113q-44 13 -58.5 25.5t-14.5 35.5z" />
<glyph unicode="&#xfa;" horiz-adv-x="1092" d="M121 618q0 137 7 252.5t19 181.5q2 10 5 27q17 111 71 111h195q25 0 32 -6t7 -27q0 -6 -10 -44q-80 -310 -80 -648q0 -140 34 -201t111 -61q98 0 148.5 99t50.5 292q0 283 -53 530q-7 29 -7 33q0 19 8.5 26t36.5 7h183q50 0 66 -51t16 -256v-150q0 -253 -4.5 -384 t-14.5 -220l-1 -5q-16 -142 -173 -142q-56 0 -85.5 5t-35.5 15q-3 5 -6 16q-9 29 -35 29q-3 0 -70.5 -37t-138.5 -37q-150 0 -213 139.5t-63 505.5zM279 1413q0 14 8.5 22t34.5 19l387 158q3 1 8 3q28 11 43 11q34 0 58 -41t24 -92q0 -23 -14.5 -35.5t-58.5 -25.5l-406 -113 q-3 -1 -14 -3.5t-17 -2.5q-18 0 -35.5 34.5t-17.5 65.5z" />
<glyph unicode="&#xfb;" horiz-adv-x="1092" d="M121 618q0 137 7 252.5t19 181.5q2 10 5 27q17 111 71 111h195q25 0 32 -6t7 -27q0 -6 -10 -44q-80 -310 -80 -648q0 -140 34 -201t111 -61q98 0 148.5 99t50.5 292q0 283 -53 530q-7 29 -7 33q0 19 8.5 26t36.5 7h183q50 0 66 -51t16 -256v-150q0 -253 -4.5 -384 t-14.5 -220l-1 -5q-16 -142 -173 -142q-56 0 -85.5 5t-35.5 15q-3 5 -6 16q-9 29 -35 29q-3 0 -70.5 -37t-138.5 -37q-150 0 -213 139.5t-63 505.5zM248 1337q0 3 6 12t15 20l198 230l9 12q18 23 59 23h65q42 0 64 -27q6 -7 10 -12l192 -227q9 -11 15 -20.5t6 -12.5 q0 -8 -33.5 -14t-87.5 -6q-21 0 -35 6t-30 25l-134 157l-133 -157q-13 -18 -28 -24.5t-49 -6.5q-47 0 -78 6.5t-31 15.5z" />
<glyph unicode="&#xfc;" horiz-adv-x="1092" d="M121 618q0 137 7 252.5t19 181.5q2 10 5 27q17 111 71 111h195q25 0 32 -6t7 -27q0 -6 -10 -44q-80 -310 -80 -648q0 -140 34 -201t111 -61q98 0 148.5 99t50.5 292q0 283 -53 530q-7 29 -7 33q0 19 8.5 26t36.5 7h183q50 0 66 -51t16 -256v-150q0 -253 -4.5 -384 t-14.5 -220l-1 -5q-16 -142 -173 -142q-56 0 -85.5 5t-35.5 15q-3 5 -6 16q-9 29 -35 29q-3 0 -70.5 -37t-138.5 -37q-150 0 -213 139.5t-63 505.5zM225 1485q0 51 34.5 86t84.5 35t84.5 -35.5t34.5 -85.5q0 -49 -35 -84t-84 -35t-84 34.5t-35 84.5zM668 1485q0 51 34 86 t85 35q49 0 83.5 -35.5t34.5 -85.5q0 -49 -34.5 -84t-83.5 -35q-50 0 -84.5 34.5t-34.5 84.5z" />
<glyph unicode="&#xfd;" horiz-adv-x="975" d="M59 1104q0 51 10 68.5t46 17.5h207q22 0 31 -4t9 -12q0 -13 -6 -58t-6 -80q0 -149 78 -290.5t135 -141.5q50 0 87.5 113t37.5 278q0 56 -7 113t-7 59q0 12 6 17.5t20 5.5h177q33 0 42 -19.5t9 -103.5q0 -222 -69 -425.5t-200 -369.5q-112 -141 -252.5 -220t-277.5 -79 q-37 0 -47 8t-10 46v204q0 16 5 21.5t17 5.5q6 0 19 -2t22 -2q106 0 184 39.5t78 83.5q0 22 -66.5 78.5t-107.5 113.5q-82 115 -123 248.5t-41 286.5zM219 1413q0 14 8.5 22t34.5 19l387 158q3 1 8 3q28 11 43 11q34 0 58 -41t24 -92q0 -23 -14.5 -35.5t-58.5 -25.5 l-406 -113q-3 -1 -14 -3.5t-17 -2.5q-18 0 -35.5 34.5t-17.5 65.5z" />
<glyph unicode="&#xfe;" horiz-adv-x="1087" d="M119 489q0 288 10.5 541.5t26.5 394.5q13 108 32 128t113 20h10q103 0 125.5 -5t22.5 -20q0 -27 -26.5 -134t-26.5 -169q0 -24 5 -31.5t21 -7.5q11 0 41.5 3t50.5 3q232 0 353.5 -97t121.5 -281q0 -120 -46.5 -230t-135.5 -201q-67 -67 -138 -110t-110 -43q-31 0 -69 32 t-99 111h-16v-22q0 -148 26 -303q7 -38 7 -48t-11 -15t-34 -5h-185q-27 0 -37.5 7t-15.5 26q-8 37 -12 153.5t-4 302.5zM377 653q0 -116 19.5 -145t70.5 -29q103 0 201 94.5t98 208.5q0 94 -65.5 153.5t-168.5 59.5q-93 0 -124 -65t-31 -260v-17z" />
<glyph unicode="&#xff;" horiz-adv-x="975" d="M59 1104q0 51 10 68.5t46 17.5h207q22 0 31 -4t9 -12q0 -13 -6 -58t-6 -80q0 -149 78 -290.5t135 -141.5q50 0 87.5 113t37.5 278q0 56 -7 113t-7 59q0 12 6 17.5t20 5.5h177q33 0 42 -19.5t9 -103.5q0 -222 -69 -425.5t-200 -369.5q-112 -141 -252.5 -220t-277.5 -79 q-37 0 -47 8t-10 46v204q0 16 5 21.5t17 5.5q6 0 19 -2t22 -2q106 0 184 39.5t78 83.5q0 22 -66.5 78.5t-107.5 113.5q-82 115 -123 248.5t-41 286.5zM165 1485q0 51 34.5 86t84.5 35t84.5 -35.5t34.5 -85.5q0 -49 -35 -84t-84 -35t-84 34.5t-35 84.5zM608 1485q0 51 34 86 t85 35q49 0 83.5 -35.5t34.5 -85.5q0 -49 -34.5 -84t-83.5 -35q-50 0 -84.5 34.5t-34.5 84.5z" />
<glyph unicode="&#x152;" horiz-adv-x="1954" d="M96 539q0 199 56 406t153 370q81 135 181.5 206.5t209.5 71.5q86 0 171.5 -47.5t172.5 -144.5q20 100 43 130t66 30h690q7 0 16.5 -1t10.5 -1q25 -1 32.5 -5t8.5 -16q0 -5 -3 -13q-1 -2 -1 -3l-105 -240q-6 -16 -14 -23.5t-19 -7.5q-4 0 -27 14q-122 74 -231 74 q-121 0 -190.5 -72.5t-69.5 -199.5q0 -42 17 -70t41 -28q31 0 135 45t180 45q69 0 92 -8t23 -27q0 -8 -0.5 -11.5t-1.5 -6.5l-87 -245q-1 -4 -4 -11q-8 -23 -20 -23q-2 0 -52 16.5t-97 16.5q-99 0 -162.5 -70t-63.5 -180q0 -127 63.5 -197.5t176.5 -70.5q106 0 245 98 q40 29 50 29q9 0 15 -5t16 -25l120 -273q1 -2 3 -7q6 -13 6 -18q0 -20 -20 -30.5t-58 -10.5h-672q-4 0 -19.5 1t-25.5 1q-49 0 -63 20t-21 127q-35 -96 -128 -136t-292 -40q-286 0 -416.5 135.5t-130.5 430.5zM391 659q0 -187 69 -264.5t236 -77.5q158 0 229.5 85t71.5 272 q0 256 -94 444.5t-207 188.5q-121 0 -213 -190.5t-92 -457.5z" />
<glyph unicode="&#x153;" horiz-adv-x="1690" d="M72 592q0 277 129 452t327 175q97 0 181 -40t178 -130q89 87 177.5 128.5t186.5 41.5q155 0 257 -90t102 -226q0 -114 -63.5 -193t-198.5 -132q-44 -18 -123 -45q-195 -67 -195 -148q0 -61 64.5 -101t167.5 -40q85 0 153.5 29t112.5 83q28 36 41 77.5t16 41.5 q18 0 29.5 -37t11.5 -100q0 -163 -113.5 -264t-300.5 -101q-113 0 -199.5 43.5t-146.5 128.5q-55 -85 -138 -128.5t-191 -43.5q-211 0 -338 169t-127 450zM315 637q0 -162 60 -257t162 -95q97 0 159 101.5t62 264.5q0 156 -60 249t-157 93q-103 0 -164.5 -96t-61.5 -260z M989 741q0 -19 9.5 -29t27.5 -10q7 1 21 3.5t29 7.5l222 73q40 14 59 38.5t19 62.5q0 53 -42.5 87t-108.5 34q-96 0 -166 -82t-70 -185z" />
<glyph unicode="&#x178;" horiz-adv-x="1196" d="M33 1458q0 57 11 80t38 23h250q22 0 31.5 -10t9.5 -35q0 -12 -3 -53t-3 -70q0 -198 87.5 -366.5t155.5 -168.5q21 0 63.5 51t88.5 133q52 97 75 177.5t23 160.5q0 48 -4 97l-4 49q0 19 8.5 27t28.5 8h211q31 0 44 -30.5t13 -109.5q0 -133 -48.5 -257.5t-182.5 -305.5 q-167 -227 -228 -388t-61 -341q0 -29 3 -60.5t3 -35.5q0 -19 -12 -26t-43 -7h-217q-34 0 -48 23.5t-14 85.5q0 124 66.5 273t66.5 165q0 33 -97.5 140.5t-162.5 215.5q-74 126 -111.5 265t-37.5 290zM337 1866q0 51 34.5 86t84.5 35t84.5 -35.5t34.5 -85.5q0 -49 -35 -84 t-84 -35t-84 34.5t-35 84.5zM780 1866q0 51 34 86t85 35q49 0 83.5 -35.5t34.5 -85.5q0 -49 -34.5 -84t-83.5 -35q-50 0 -84.5 34.5t-34.5 84.5z" />
<glyph unicode="&#x2c6;" d="M213 1337q0 3 6 12t15 20l198 230l9 12q18 23 59 23h65q42 0 64 -27q6 -7 10 -12l192 -227q9 -11 15 -20.5t6 -12.5q0 -8 -33.5 -14t-87.5 -6q-21 0 -35 6t-30 25l-134 157l-133 -157q-13 -18 -28 -24.5t-49 -6.5q-47 0 -78 6.5t-31 15.5z" />
<glyph unicode="&#x2dc;" d="M158 1376q0 96 59 158.5t154 62.5q78 0 195 -42t157 -42q67 0 93.5 49.5t31.5 49.5h39q9 0 13.5 -5.5t4.5 -17.5q0 -96 -59 -158.5t-154 -62.5q-78 0 -194 43t-156 43q-67 0 -94.5 -49t-32.5 -49h-37q-11 0 -15.5 5t-4.5 15z" />
<glyph unicode="&#x2000;" horiz-adv-x="1007" />
<glyph unicode="&#x2001;" horiz-adv-x="2015" />
<glyph unicode="&#x2002;" horiz-adv-x="1007" />
<glyph unicode="&#x2003;" horiz-adv-x="2015" />
<glyph unicode="&#x2004;" horiz-adv-x="671" />
<glyph unicode="&#x2005;" horiz-adv-x="503" />
<glyph unicode="&#x2006;" horiz-adv-x="335" />
<glyph unicode="&#x2007;" horiz-adv-x="335" />
<glyph unicode="&#x2008;" horiz-adv-x="251" />
<glyph unicode="&#x2009;" horiz-adv-x="403" />
<glyph unicode="&#x200a;" horiz-adv-x="111" />
<glyph unicode="&#x2010;" horiz-adv-x="680" d="M70 504q0 31 17.5 87t41.5 95q12 19 26 26t38 7h348q31 0 41 -6t10 -27q0 -39 -19 -102t-38 -90q-11 -16 -24 -20.5t-46 -4.5h-342q-33 0 -43 6.5t-10 28.5z" />
<glyph unicode="&#x2011;" horiz-adv-x="680" d="M70 504q0 31 17.5 87t41.5 95q12 19 26 26t38 7h348q31 0 41 -6t10 -27q0 -39 -19 -102t-38 -90q-11 -16 -24 -20.5t-46 -4.5h-342q-33 0 -43 6.5t-10 28.5z" />
<glyph unicode="&#x2012;" horiz-adv-x="680" d="M70 504q0 31 17.5 87t41.5 95q12 19 26 26t38 7h348q31 0 41 -6t10 -27q0 -39 -19 -102t-38 -90q-11 -16 -24 -20.5t-46 -4.5h-342q-33 0 -43 6.5t-10 28.5z" />
<glyph unicode="&#x2013;" d="M0 500v190h1038v-190h-1038z" />
<glyph unicode="&#x2014;" horiz-adv-x="2048" d="M0 500v190h2048v-190h-2048z" />
<glyph unicode="&#x2018;" horiz-adv-x="563" d="M57 1292q0 121 108.5 212t235.5 91q2 0 3.5 -1t1.5 -3q0 -4 -11 -21q-41 -64 -41 -132q0 -102 140 -157q24 -10 24 -13q0 -2 -3.5 -4.5t-4.5 -3.5l-234 -185q-11 -8 -22 -13t-18 -5q-63 0 -121 67.5t-58 167.5z" />
<glyph unicode="&#x2019;" horiz-adv-x="563" d="M27 1382q0 1 2.5 2.5t5.5 4.5l233 186q11 8 22.5 13t18.5 5q62 0 120 -68.5t58 -168.5q0 -121 -108 -212t-236 -91q-1 0 -2.5 1t-1.5 3q1 5 11 22q40 65 40 133q0 102 -139 157q-24 10 -24 13z" />
<glyph unicode="&#x201a;" horiz-adv-x="563" d="M18 174q1 2 4 4.5t5 3.5l233 187q10 7 21.5 11.5t19.5 4.5q62 0 120 -67.5t58 -167.5q0 -121 -108 -212.5t-236 -91.5q-1 0 -2.5 1.5t-1.5 2.5q1 7 11 23q40 65 40 133q0 102 -139 155q-24 9 -25 13z" />
<glyph unicode="&#x201c;" horiz-adv-x="1085" d="M61 1292q0 121 108.5 212t236.5 91q1 0 2.5 -1t1.5 -3q0 -4 -11 -21q-41 -64 -41 -132q0 -102 140 -157q24 -10 24 -13q0 -2 -3 -4.5t-5 -3.5l-233 -185q-11 -8 -22.5 -13t-18.5 -5q-63 0 -121 67.5t-58 167.5zM575 1292q0 121 108.5 212t236.5 91q1 0 2.5 -1t1.5 -3 q0 -4 -11 -21q-41 -64 -41 -132q0 -102 140 -157q24 -10 24 -13q0 -2 -3 -4.5t-5 -3.5l-236 -185q-10 -8 -21 -13t-17 -5q-63 0 -121 67.5t-58 167.5z" />
<glyph unicode="&#x201d;" horiz-adv-x="1085" d="M39 1382q0 2 2 3.5t4 3.5l236 186q12 9 22 13.5t16 4.5q62 0 120.5 -68.5t58.5 -168.5q0 -121 -108.5 -212t-235.5 -91q-2 0 -3 1t-1 3q0 5 10 22q41 65 41 133q0 102 -138 157q-24 10 -24 13zM551 1382q0 1 3.5 3t4.5 4l234 186q11 8 22.5 13t18.5 5q61 0 119.5 -68.5 t58.5 -168.5q0 -121 -108.5 -212t-235.5 -91q-2 0 -3 1t-1 3q0 5 10 22q41 65 41 133q0 102 -139 157q-25 10 -25 13z" />
<glyph unicode="&#x201e;" horiz-adv-x="1085" d="M33 174q0 1 1 2.5t5 5.5l235 187q11 7 21.5 11.5t17.5 4.5q63 0 121 -67.5t58 -167.5q0 -121 -108.5 -212.5t-236.5 -91.5q-1 0 -2.5 1.5t-1.5 2.5q1 6 12 23q42 65 42 133q0 102 -139 155q-25 10 -25 13zM549 174q0 1 1 2.5t5 5.5l236 187q10 7 20.5 11.5t17.5 4.5 q63 0 121 -67.5t58 -167.5q0 -121 -108.5 -212.5t-235.5 -91.5q-2 0 -3.5 1.5t-1.5 2.5q1 6 12 24q40 64 40 132q0 102 -138 155q-24 10 -24 13z" />
<glyph unicode="&#x2022;" horiz-adv-x="1208" d="M307 762q0 123 87 209t210 86q122 0 208.5 -86.5t86.5 -208.5t-87.5 -209.5t-209.5 -87.5q-123 0 -209 87t-86 210z" />
<glyph unicode="&#x2026;" horiz-adv-x="2048" d="M129 174q0 90 62 152.5t151 62.5q88 0 150.5 -62.5t62.5 -152.5q0 -87 -63 -150t-150 -63q-91 0 -152 61t-61 152zM811 174q0 90 62 152.5t151 62.5q88 0 150.5 -62.5t62.5 -152.5q0 -87 -63 -150t-150 -63q-91 0 -152 61t-61 152zM1495 174q0 90 62 152.5t151 62.5 q88 0 150.5 -62.5t62.5 -152.5q0 -87 -63 -150t-150 -63q-91 0 -152 61t-61 152z" />
<glyph unicode="&#x202f;" horiz-adv-x="403" />
<glyph unicode="&#x2039;" horiz-adv-x="563" d="M63 596q0 6 3.5 14t9.5 17l241 360q7 11 14.5 17t14.5 6t15 -4t15 -10l98 -77q12 -9 18 -16.5t6 -13.5t-4 -12.5t-15 -16.5l-235 -260l233 -282q7 -9 9.5 -14t2.5 -9q0 -6 -5 -13t-15 -16l-90 -71q-14 -10 -21 -13.5t-12 -3.5q-6 0 -13.5 6t-14.5 16l-242 359 q-6 9 -9.5 18.5t-3.5 18.5z" />
<glyph unicode="&#x203a;" horiz-adv-x="563" d="M74 299q0 7 3.5 13.5t12.5 15.5l236 260l-234 282q-6 8 -9 14t-3 11q0 4 5.5 11.5t14.5 15.5l90 71q14 10 21 13.5t12 3.5q7 -1 14 -6.5t15 -16.5l242 -359q6 -9 9 -18t3 -18q0 -6 -3 -13.5t-9 -16.5l-240 -361q-7 -11 -15 -17t-16 -6q-6 0 -13.5 3.5t-17.5 11.5l-96 75 q-11 9 -16.5 16.5t-5.5 14.5z" />
<glyph unicode="&#x205f;" horiz-adv-x="503" />
<glyph unicode="&#x2122;" horiz-adv-x="1706" d="M225 1366v94h467v-94h-168v-448h-129v448h-170zM809 918v542h170l141 -360l133 360h170v-542h-114v428l-160 -428h-59l-166 428v-428h-115z" />
<glyph unicode="&#x25fc;" horiz-adv-x="1190" d="M0 0v1190h1190v-1190h-1190z" />
</font>
</defs>
</svg>
